<svg width="25" height="25" viewBox="0 0 25 25" fill="none" xmlns="http://www.w3.org/2000/svg">
<path d="M21.8914 3.48189C21.8914 3.02017 21.7079 2.57735 21.3815 2.25086C21.055 1.92437 20.6121 1.74095 20.1504 1.74095H16.6685V0H14.9276V1.74095H7.96379V0H6.22284V1.74095H2.74095C2.27922 1.74095 1.8364 1.92437 1.50991 2.25086C1.18342 2.57735 1 3.02017 1 3.48189V20.8914C1 21.3531 1.18342 21.7959 1.50991 22.1224C1.8364 22.4489 2.27922 22.6323 2.74095 22.6323H6.22284V20.8914H2.74095V3.48189H6.22284V5.22284H7.96379V3.48189H14.9276V5.22284H16.6685V3.48189H20.1504V8.70473H21.8914V3.48189Z" fill="#999999"/>
<path d="M22.3227 19.7614C22.3227 19.7855 22.3227 19.8097 22.2985 19.8097C22.226 20.0752 22.1292 20.3408 22.0325 20.6063C21.9116 20.896 21.7907 21.1616 21.6456 21.4271C21.3554 21.9582 20.9927 22.441 20.5574 22.8756C20.1463 23.3101 19.6627 23.6964 19.1307 24.0102C18.5987 24.324 18.0426 24.5655 17.438 24.7344C16.8335 24.9034 16.2048 25 15.5761 25C11.7554 25 8.66017 21.9099 8.66017 18.0715C8.66017 14.2331 11.7554 11.1671 15.5761 11.1671C16.8577 11.1671 18.0667 11.5292 19.1065 12.1328C19.1065 12.1328 19.1065 12.1328 19.1307 12.1328C19.6385 12.4225 20.098 12.7846 20.4849 13.195C20.6058 13.2915 20.6783 13.364 20.7751 13.4847C20.9927 13.6778 21.162 13.5571 21.162 13.2674V10.9981C21.162 10.7326 21.3796 10.5153 21.6456 10.5153H22.6129C22.8788 10.5153 23.0965 10.7326 23.1448 10.9981V16.9127C23.1448 17.13 22.9514 17.3473 22.7096 17.3473H16.7851C16.5191 17.3473 16.3257 17.1541 16.3257 16.8886V15.8747C16.3257 15.6091 16.5433 15.3918 16.8093 15.3918H19.0824C19.2758 15.3918 19.4209 15.3435 19.4935 15.2228C18.6229 14.0158 17.172 13.2191 15.5761 13.2191C12.8919 13.2191 10.7156 15.3918 10.7156 18.0715C10.7156 20.7512 12.8919 22.9239 15.5761 22.9239C17.6798 22.9239 19.4693 21.5961 20.1463 19.7131C20.1463 19.7131 20.2189 19.2786 20.5574 19.2786C20.896 19.2786 21.7181 19.2786 21.9358 19.2786C22.1292 19.2786 22.3227 19.4234 22.3227 19.6407C22.3227 19.6889 22.3227 19.7131 22.3227 19.7614Z" fill="#999999"/>
<path d="M4.20381 7.65059C4.20746 7.34293 4.45982 7.09648 4.76748 7.10012L18.137 7.25856C18.4447 7.26221 18.6911 7.51457 18.6875 7.82223C18.6838 8.12988 18.4315 8.37633 18.1238 8.37269L4.75428 8.21425C4.44662 8.21061 4.20017 7.95824 4.20381 7.65059Z" fill="#999999"/>
</svg>
