<svg width="25" height="25" viewBox="0 0 25 25" fill="none" xmlns="http://www.w3.org/2000/svg">
<path d="M3.5 9.5C5.15685 9.5 6.5 10.8431 6.5 12.5C6.5 14.1569 5.15685 15.5 3.5 15.5C1.84315 15.5 0.5 14.1569 0.5 12.5C0.5 10.8431 1.84315 9.5 3.5 9.5ZM12.5 9.5C14.1569 9.5 15.5 10.8431 15.5 12.5C15.5 14.1569 14.1569 15.5 12.5 15.5C10.8431 15.5 9.5 14.1569 9.5 12.5C9.5 10.8431 10.8431 9.5 12.5 9.5ZM21.5 9.5C23.1569 9.5 24.5 10.8431 24.5 12.5C24.5 14.1569 23.1569 15.5 21.5 15.5C19.8431 15.5 18.5 14.1569 18.5 12.5C18.5 10.8431 19.8431 9.5 21.5 9.5Z" stroke="#999999"/>
</svg>
