<svg width="25" height="25" viewBox="0 0 25 25" fill="none" xmlns="http://www.w3.org/2000/svg">
<path d="M24.3395 10.4336L23.5024 9.58066L18.8623 5.56436C18.4411 5.20049 17.903 5 17.3475 5H7.67314C7.10171 5 6.55254 5.21064 6.1269 5.59272L0.767187 10.4059C0.279785 10.8444 0 11.4719 0 12.1277V16.6891C0 17.9657 1.03823 19.0039 2.31445 19.0039H22.6855C23.9618 19.0039 25 17.9657 25 16.6891V12.0531C25 11.4442 24.7654 10.869 24.3395 10.4336ZM17.0636 10.9038L17.0005 11.1691C16.5013 13.2625 14.6506 14.7244 12.4998 14.7244C10.3491 14.7244 8.49868 13.2625 7.99951 11.1691L7.93643 10.9038H6.95518L3.7395 10.9345L7.53135 7.3958C7.58906 7.3418 7.66435 7.31211 7.74331 7.31211H17.2681C17.3438 7.31211 17.4167 7.33945 17.4734 7.38936L21.5248 10.9038L17.0636 10.9038Z" fill="#999999"/>
</svg>
