<svg width="25" height="25" viewBox="0 0 25 25" fill="none" xmlns="http://www.w3.org/2000/svg">
<g clip-path="url(#clip0_1_5407)">
<path fill-rule="evenodd" clip-rule="evenodd" d="M20.1019 20.5578L4.61899 4.72128C6.57872 2.99072 9.68473 1.38889 12.5 1.38889C18.6264 1.38889 23.6111 6.37361 23.6111 12.5C23.6111 15.3139 21.8325 18.5981 20.1019 20.5578ZM1.38889 12.5C1.38889 9.68473 2.88705 6.68101 4.61899 4.72128L20.1019 20.5578C18.1422 22.2883 15.3139 23.6111 12.5 23.6111C6.37361 23.6111 1.38889 18.6264 1.38889 12.5ZM12.5 0C5.59583 0 0 5.59583 0 12.5C0 19.4042 5.59583 25 12.5 25C19.4028 25 25 19.4042 25 12.5C25 5.59583 19.4028 0 12.5 0Z" fill="#999999"/>
<path d="M18.864 20.0269L5.07538 6.23833L6.13604 5.17767L19.9246 18.9662L18.864 20.0269Z" fill="#999999"/>
</g>
<defs>
<clipPath id="clip0_1_5407">
<rect width="25" height="25" fill="white"/>
</clipPath>
</defs>
</svg>
