<svg width="19" height="21" viewBox="0 0 19 21" fill="none" xmlns="http://www.w3.org/2000/svg">
<path d="M6.08984 1.04297C6.26172 0.53125 6.73828 0.1875 7.27734 0.1875H11.7266C12.2656 0.1875 12.7422 0.53125 12.9141 1.04297L13.25 2.0625H17C17.6914 2.0625 18.25 2.62109 18.25 3.3125C18.25 4.00391 17.6914 4.5625 17 4.5625H2C1.30859 4.5625 0.75 4.00391 0.75 3.3125C0.75 2.62109 1.30859 2.0625 2 2.0625H5.75L6.08984 1.04297ZM2 6.4375H17V18.3125C17 19.6914 15.8789 20.8125 14.5 20.8125H4.5C3.12109 20.8125 2 19.6914 2 18.3125V6.4375ZM5.4375 8.9375C4.91797 8.9375 4.5 9.35547 4.5 9.875V17.375C4.5 17.8945 4.91797 18.3125 5.4375 18.3125C5.95703 18.3125 6.375 17.8945 6.375 17.375V9.875C6.375 9.35547 5.95703 8.9375 5.4375 8.9375ZM9.5 8.9375C8.98047 8.9375 8.5625 9.35547 8.5625 9.875V17.375C8.5625 17.8945 8.98047 18.3125 9.5 18.3125C10.0195 18.3125 10.4375 17.8945 10.4375 17.375V9.875C10.4375 9.35547 10.0195 8.9375 9.5 8.9375ZM13.5625 8.9375C13.043 8.9375 12.625 9.35547 12.625 9.875V17.375C12.625 17.8945 13.043 18.3125 13.5625 18.3125C14.082 18.3125 14.5 17.8945 14.5 17.375V9.875C14.5 9.35547 14.082 8.9375 13.5625 8.9375Z" fill="#999999"/>
</svg>
