<svg width="25" height="25" viewBox="0 0 25 25" fill="none" xmlns="http://www.w3.org/2000/svg">
<path d="M23.2857 18.8273L21.5714 17.9701V15.9286C21.5694 14.7143 21.1382 13.5399 20.3539 12.6129C19.5696 11.6859 18.4829 11.066 17.2857 10.8629V9.07143H15.5714V10.8629C14.3743 11.066 13.2875 11.6859 12.5033 12.6129C11.719 13.5399 11.2877 14.7143 11.2857 15.9286V17.9701L9.57143 18.8273V22.7857H14.7143V24.5H18.1429V22.7857H23.2857V18.8273ZM21.5714 21.0714H11.2857V19.887L13 19.0299V15.9286C13 15.0193 13.3612 14.1472 14.0042 13.5042C14.6472 12.8612 15.5193 12.5 16.4286 12.5C17.3379 12.5 18.21 12.8612 18.8529 13.5042C19.4959 14.1472 19.8571 15.0193 19.8571 15.9286V19.0299L21.5714 19.887V21.0714Z" fill="#999999"/>
<path d="M21.5714 3.92857C21.5714 3.47391 21.3908 3.03788 21.0693 2.71639C20.7478 2.3949 20.3118 2.21429 19.8571 2.21429H16.4286V0.5H14.7143V2.21429H7.85714V0.5H6.14286V2.21429H2.71429C2.25963 2.21429 1.82359 2.3949 1.5021 2.71639C1.18061 3.03788 1 3.47391 1 3.92857V21.0714C1 21.5261 1.18061 21.9621 1.5021 22.2836C1.82359 22.6051 2.25963 22.7857 2.71429 22.7857H6.14286V21.0714H2.71429V3.92857H6.14286V5.64286H7.85714V3.92857H14.7143V5.64286H16.4286V3.92857H19.8571V9.07143H21.5714V3.92857Z" fill="#999999"/>
</svg>
