<svg width="25" height="25" viewBox="0 0 25 25" fill="none" xmlns="http://www.w3.org/2000/svg">
<path d="M3.92287 23C2.61525 23 1.63245 22.6752 0.97447 22.0255C0.324823 21.3842 0 20.4181 0 19.1271V3.8729C0 2.58193 0.324823 1.61579 0.97447 0.97447C1.63245 0.324823 2.61525 0 3.92287 0H20.9886C22.2962 0 23.2749 0.324823 23.9245 0.97447C24.5741 1.61579 24.899 2.58193 24.899 3.8729V19.1271C24.899 20.4181 24.5741 21.3842 23.9245 22.0255C23.2749 22.6752 22.2962 23 20.9886 23H3.92287ZM3.73547 20.9886H21.151C21.709 20.9886 22.138 20.8387 22.4378 20.5388C22.7376 20.2473 22.8876 19.8142 22.8876 19.2395V7.45845C22.8876 6.88376 22.7376 6.45066 22.4378 6.15915C22.138 5.85932 21.709 5.7094 21.151 5.7094H3.73547C3.18577 5.7094 2.761 5.85932 2.46116 6.15915C2.16133 6.45066 2.01141 6.88376 2.01141 7.45845V19.2395C2.01141 19.8142 2.16133 20.2473 2.46116 20.5388C2.761 20.8387 3.18577 20.9886 3.73547 20.9886ZM10.0196 10.207C9.80301 10.207 9.64892 10.1653 9.55731 10.082C9.47402 9.99873 9.43237 9.84881 9.43237 9.63227V8.89517C9.43237 8.67862 9.47402 8.53286 9.55731 8.4579C9.64892 8.37461 9.80301 8.33297 10.0196 8.33297H10.7567C10.9732 8.33297 11.1231 8.37461 11.2064 8.4579C11.298 8.53286 11.3438 8.67862 11.3438 8.89517V9.63227C11.3438 9.84881 11.298 9.99873 11.2064 10.082C11.1231 10.1653 10.9732 10.207 10.7567 10.207H10.0196ZM14.1673 10.207C13.9508 10.207 13.8008 10.1653 13.7175 10.082C13.6343 9.99873 13.5926 9.84881 13.5926 9.63227V8.89517C13.5926 8.67862 13.6343 8.53286 13.7175 8.4579C13.8008 8.37461 13.9508 8.33297 14.1673 8.33297H14.9044C15.1293 8.33297 15.2834 8.37461 15.3666 8.4579C15.4499 8.53286 15.4916 8.67862 15.4916 8.89517V9.63227C15.4916 9.84881 15.4499 9.99873 15.3666 10.082C15.2834 10.1653 15.1293 10.207 14.9044 10.207H14.1673ZM18.3275 10.207C18.1027 10.207 17.9486 10.1653 17.8653 10.082C17.782 9.99873 17.7404 9.84881 17.7404 9.63227V8.89517C17.7404 8.67862 17.782 8.53286 17.8653 8.4579C17.9486 8.37461 18.1027 8.33297 18.3275 8.33297H19.0521C19.277 8.33297 19.4311 8.37461 19.5144 8.4579C19.5977 8.53286 19.6393 8.67862 19.6393 8.89517V9.63227C19.6393 9.84881 19.5977 9.99873 19.5144 10.082C19.4311 10.1653 19.277 10.207 19.0521 10.207H18.3275ZM5.87181 14.2922C5.64693 14.2922 5.49285 14.2506 5.40956 14.1673C5.32627 14.084 5.28463 13.9341 5.28463 13.7175V12.9929C5.28463 12.7681 5.32627 12.6181 5.40956 12.5432C5.49285 12.4599 5.64693 12.4183 5.87181 12.4183H6.60891C6.82546 12.4183 6.97538 12.4599 7.05866 12.5432C7.14195 12.6181 7.1836 12.7681 7.1836 12.9929V13.7175C7.1836 13.9341 7.14195 14.084 7.05866 14.1673C6.97538 14.2506 6.82546 14.2922 6.60891 14.2922H5.87181ZM10.0196 14.2922C9.80301 14.2922 9.64892 14.2506 9.55731 14.1673C9.47402 14.084 9.43237 13.9341 9.43237 13.7175V12.9929C9.43237 12.7681 9.47402 12.6181 9.55731 12.5432C9.64892 12.4599 9.80301 12.4183 10.0196 12.4183H10.7567C10.9732 12.4183 11.1231 12.4599 11.2064 12.5432C11.298 12.6181 11.3438 12.7681 11.3438 12.9929V13.7175C11.3438 13.9341 11.298 14.084 11.2064 14.1673C11.1231 14.2506 10.9732 14.2922 10.7567 14.2922H10.0196ZM14.1673 14.2922C13.9508 14.2922 13.8008 14.2506 13.7175 14.1673C13.6343 14.084 13.5926 13.9341 13.5926 13.7175V12.9929C13.5926 12.7681 13.6343 12.6181 13.7175 12.5432C13.8008 12.4599 13.9508 12.4183 14.1673 12.4183H14.9044C15.1293 12.4183 15.2834 12.4599 15.3666 12.5432C15.4499 12.6181 15.4916 12.7681 15.4916 12.9929V13.7175C15.4916 13.9341 15.4499 14.084 15.3666 14.1673C15.2834 14.2506 15.1293 14.2922 14.9044 14.2922H14.1673ZM18.3275 14.2922C18.1027 14.2922 17.9486 14.2506 17.8653 14.1673C17.782 14.084 17.7404 13.9341 17.7404 13.7175V12.9929C17.7404 12.7681 17.782 12.6181 17.8653 12.5432C17.9486 12.4599 18.1027 12.4183 18.3275 12.4183H19.0521C19.277 12.4183 19.4311 12.4599 19.5144 12.5432C19.5977 12.6181 19.6393 12.7681 19.6393 12.9929V13.7175C19.6393 13.9341 19.5977 14.084 19.5144 14.1673C19.4311 14.2506 19.277 14.2922 19.0521 14.2922H18.3275ZM5.87181 18.3775C5.64693 18.3775 5.49285 18.34 5.40956 18.2651C5.32627 18.1818 5.28463 18.0277 5.28463 17.8028V17.0782C5.28463 16.8533 5.32627 16.7034 5.40956 16.6285C5.49285 16.5452 5.64693 16.5035 5.87181 16.5035H6.60891C6.82546 16.5035 6.97538 16.5452 7.05866 16.6285C7.14195 16.7034 7.1836 16.8533 7.1836 17.0782V17.8028C7.1836 18.0277 7.14195 18.1818 7.05866 18.2651C6.97538 18.34 6.82546 18.3775 6.60891 18.3775H5.87181ZM10.0196 18.3775C9.80301 18.3775 9.64892 18.34 9.55731 18.2651C9.47402 18.1818 9.43237 18.0277 9.43237 17.8028V17.0782C9.43237 16.8533 9.47402 16.7034 9.55731 16.6285C9.64892 16.5452 9.80301 16.5035 10.0196 16.5035H10.7567C10.9732 16.5035 11.1231 16.5452 11.2064 16.6285C11.298 16.7034 11.3438 16.8533 11.3438 17.0782V17.8028C11.3438 18.0277 11.298 18.1818 11.2064 18.2651C11.1231 18.34 10.9732 18.3775 10.7567 18.3775H10.0196ZM14.1673 18.3775C13.9508 18.3775 13.8008 18.34 13.7175 18.2651C13.6343 18.1818 13.5926 18.0277 13.5926 17.8028V17.0782C13.5926 16.8533 13.6343 16.7034 13.7175 16.6285C13.8008 16.5452 13.9508 16.5035 14.1673 16.5035H14.9044C15.1293 16.5035 15.2834 16.5452 15.3666 16.6285C15.4499 16.7034 15.4916 16.8533 15.4916 17.0782V17.8028C15.4916 18.0277 15.4499 18.1818 15.3666 18.2651C15.2834 18.34 15.1293 18.3775 14.9044 18.3775H14.1673Z" fill="#999999"/>
</svg>
