<svg width="25" height="25" viewBox="0 0 25 25" fill="none" xmlns="http://www.w3.org/2000/svg">
<path d="M22.7273 10.4606V23.4516H1.51533V6.41935H3.78804V4.87097H1.32594C1.14885 4.87399 0.974076 4.91264 0.811603 4.9847C0.649129 5.05677 0.502138 5.16083 0.379026 5.29096C0.255914 5.42109 0.159093 5.57472 0.0940924 5.7431C0.0290917 5.91147 -0.0028151 6.09128 0.000194734 6.27226V23.5987C-0.0028151 23.7797 0.0290917 23.9595 0.0940924 24.1279C0.159093 24.2962 0.255914 24.4499 0.379026 24.58C0.502138 24.7101 0.649129 24.8142 0.811603 24.8863C0.974076 24.9583 1.14885 24.997 1.32594 25H22.9167C23.0938 24.997 23.2685 24.9583 23.431 24.8863C23.5935 24.8142 23.7405 24.7101 23.8636 24.58C23.9867 24.4499 24.0835 24.2962 24.1485 24.1279C24.2135 23.9595 24.2454 23.7797 24.2424 23.5987V9.77935C23.7729 10.0813 23.2624 10.3109 22.7273 10.4606Z" fill="#999999"/>
<path d="M6.06075 11.0645H4.54561V12.6129H6.06075V11.0645Z" fill="#999999"/>
<path d="M10.6062 11.0645H9.09103V12.6129H10.6062V11.0645Z" fill="#999999"/>
<path d="M15.1516 11.0645H13.6365V12.6129H15.1516V11.0645Z" fill="#999999"/>
<path d="M19.697 11.0645H18.1819V12.6129H19.697V11.0645Z" fill="#999999"/>
<path d="M6.06075 14.9355H4.54561V16.4839H6.06075V14.9355Z" fill="#999999"/>
<path d="M10.6062 14.9355H9.09103V16.4839H10.6062V14.9355Z" fill="#999999"/>
<path d="M15.1516 14.9355H13.6365V16.4839H15.1516V14.9355Z" fill="#999999"/>
<path d="M19.697 14.9355H18.1819V16.4839H19.697V14.9355Z" fill="#999999"/>
<path d="M6.06075 18.8065H4.54561V20.3548H6.06075V18.8065Z" fill="#999999"/>
<path d="M10.6062 18.8065H9.09103V20.3548H10.6062V18.8065Z" fill="#999999"/>
<path d="M15.1516 18.8065H13.6365V20.3548H15.1516V18.8065Z" fill="#999999"/>
<path d="M19.697 18.8065H18.1819V20.3548H19.697V18.8065Z" fill="#999999"/>
<path d="M6.06075 7.96774C6.26167 7.96774 6.45436 7.88618 6.59644 7.74099C6.73851 7.5958 6.81832 7.39888 6.81832 7.19355V2.54839C6.81832 2.34306 6.73851 2.14614 6.59644 2.00095C6.45436 1.85576 6.26167 1.77419 6.06075 1.77419C5.85983 1.77419 5.66714 1.85576 5.52507 2.00095C5.383 2.14614 5.30318 2.34306 5.30318 2.54839V7.19355C5.30318 7.39888 5.383 7.5958 5.52507 7.74099C5.66714 7.88618 5.85983 7.96774 6.06075 7.96774Z" fill="#999999"/>
<path d="M15.5304 4.87097H8.33346V6.41935H15.7425C15.6037 5.91538 15.5324 5.39452 15.5304 4.87097Z" fill="#999999"/>
<path d="M21.2121 8.74194C23.3041 8.74194 25 7.00884 25 4.87097C25 2.73309 23.3041 1 21.2121 1C19.1202 1 17.4243 2.73309 17.4243 4.87097C17.4243 7.00884 19.1202 8.74194 21.2121 8.74194Z" fill="#999999"/>
</svg>
