<svg width="25" height="25" viewBox="0 0 25 25" fill="none" xmlns="http://www.w3.org/2000/svg">
<g clip-path="url(#clip0_1_5403)">
<path d="M21.9737 13.1686C21.9737 7.57366 17.6987 3.10008 12.5 3.10007C7.30132 3.10007 3.02626 7.57366 3.02626 13.1686C3.02634 18.7635 7.30137 23.2362 12.5 23.2362C17.6987 23.2362 21.9737 18.7635 21.9737 13.1686ZM11.8681 7.8184C11.8682 7.46969 12.1513 7.18744 12.5 7.18744C12.8487 7.18744 13.1318 7.46969 13.1319 7.8184V12.917L15.4855 15.4094L15.5632 15.5111C15.7181 15.7608 15.6815 16.0925 15.4596 16.3021C15.2377 16.5117 14.9044 16.5293 14.664 16.3604L14.5668 16.2772L12.0411 13.6025C11.9304 13.4853 11.8682 13.3298 11.8681 13.1686V7.8184ZM1.5904 4.23987C1.3509 4.49332 0.95116 4.50519 0.697608 4.26578C0.444041 4.0263 0.433197 3.62659 0.672629 3.373L1.5904 4.23987ZM20.9089 0.672449C21.1308 0.462921 21.4641 0.445346 21.7045 0.614164L21.8017 0.697429L24.3274 3.373C24.5668 3.62659 24.556 4.0263 24.3024 4.26578C24.0488 4.50519 23.6491 4.49332 23.4096 4.23987L20.883 1.56523L20.8052 1.46346C20.6504 1.21379 20.687 0.882019 20.9089 0.672449ZM3.29549 0.614164C3.5359 0.445346 3.86922 0.46292 4.09113 0.672449C4.34472 0.911951 4.35654 1.31164 4.11704 1.56523L1.5904 4.23987L1.13151 3.80597L0.672629 3.373L3.19834 0.697429L3.29549 0.614164ZM23.2366 13.1686C23.2365 19.3921 18.4633 24.5 12.5 24.5C6.5367 24.5 1.76349 19.3921 1.7634 13.1686C1.7634 6.94504 6.53664 1.83723 12.5 1.83723C18.4634 1.83723 23.2366 6.94504 23.2366 13.1686Z" fill="#999999"/>
</g>
<defs>
<clipPath id="clip0_1_5403">
<rect width="25" height="25" fill="white"/>
</clipPath>
</defs>
</svg>
