<svg width="25" height="25" viewBox="0 0 25 25" fill="none" xmlns="http://www.w3.org/2000/svg">
<g clip-path="url(#clip0_1_5405)">
<path d="M23.2002 12.5C23.2002 6.59055 18.4095 1.7998 12.5 1.7998C6.59056 1.7998 1.7998 6.59056 1.7998 12.5C1.7998 18.4095 6.59055 23.2002 12.5 23.2002C18.4095 23.2002 23.2002 18.4095 23.2002 12.5ZM11.7002 6.11133C11.7002 5.6695 12.0582 5.31152 12.5 5.31152C12.9418 5.31152 13.2998 5.6695 13.2998 6.11133V11.7002H16.333L16.415 11.7041C16.8185 11.745 17.1338 12.0858 17.1338 12.5C17.1338 12.9418 16.7748 13.2998 16.333 13.2998H12.5C12.0582 13.2998 11.7002 12.9418 11.7002 12.5V6.11133ZM24.7998 12.5C24.7998 19.2931 19.2931 24.7998 12.5 24.7998C5.7069 24.7998 0.200195 19.2932 0.200195 12.5C0.200195 5.7069 5.7069 0.200195 12.5 0.200195C19.2932 0.200195 24.7998 5.7069 24.7998 12.5Z" fill="#999999"/>
</g>
<defs>
<clipPath id="clip0_1_5405">
<rect width="25" height="25" fill="white"/>
</clipPath>
</defs>
</svg>
