<svg width="24" height="25" viewBox="0 0 24 25" fill="none" xmlns="http://www.w3.org/2000/svg">
<path d="M2 13.42C2.00652 13.5388 2.00221 2.14027 2.00007 2.02318C2.00009 2.02195 2.00004 2.02197 2.00007 2.02318L2.07743 2.00228C2.59259 1.89849 3.16788 1.92255 3.69206 1.92213L3.79643 1.92204C6.63648 1.92593 9.31822 2.58942 11.6912 4.02691C13.9155 5.37127 16.4089 6.07465 19.0803 6.0774L19.1861 6.07758C20.0359 6.07727 20.8756 6.00795 21.709 5.85279C22.063 5.78799 22.3262 5.76161 22.6548 5.92298C22.8504 6.07195 22.9553 6.1962 22.9972 6.42976C23.0229 6.79078 22.8675 6.99702 22.6364 7.27906L22.5232 7.41962C22.1012 7.93557 21.6374 8.42094 21.1624 8.89625L21.0286 9.03119C20.6867 9.37533 20.3416 9.71252 19.9549 10.0153C19.8617 10.0887 19.7698 10.163 19.6782 10.2381C17.6591 11.8832 15.0562 13.1384 12.2885 13.0194C11.5318 12.9756 10.8111 12.8315 10.0822 12.6463C8.47015 12.2385 6.74635 12.0913 5.09546 12.4002L4.988 12.4191C4.14163 12.5707 3.30593 12.8383 2.54238 13.2057C2.47558 13.2377 2.0683 13.3908 2 13.42Z" fill="#D9D9D9"/>
<path d="M2 13.42L1.60699 12.5005L0.963114 12.7757L1.0015 13.4748L2 13.42ZM2.07743 2.00228L1.87993 1.02197L1.84799 1.02841L1.81655 1.03691L2.07743 2.00228ZM3.69206 1.92213L3.69287 2.92213L3.69294 2.92213L3.69206 1.92213ZM3.79643 1.92204L3.7978 0.922034L3.79555 0.922036L3.79643 1.92204ZM11.6912 4.02691L11.1731 4.88222L11.174 4.88274L11.6912 4.02691ZM19.0803 6.0774L19.082 5.0774L19.0813 5.0774L19.0803 6.0774ZM19.1861 6.07758L19.1844 7.07758L19.1865 7.07758L19.1861 6.07758ZM21.709 5.85279L21.5289 4.86913L21.526 4.86968L21.709 5.85279ZM22.6548 5.92298L23.2609 5.12755L23.1832 5.06838L23.0956 5.02535L22.6548 5.92298ZM22.9972 6.42976L23.9947 6.35891L23.9909 6.30561L23.9815 6.25301L22.9972 6.42976ZM22.6364 7.27906L21.8628 6.64532L21.8577 6.65169L22.6364 7.27906ZM22.5232 7.41962L23.2973 8.05268L23.3019 8.04699L22.5232 7.41962ZM21.1624 8.89625L20.4551 8.18935L20.4522 8.19221L21.1624 8.89625ZM21.0286 9.03119L21.738 9.73598L21.7388 9.73522L21.0286 9.03119ZM19.9549 10.0153L19.3385 9.22786L19.3362 9.22968L19.9549 10.0153ZM19.6782 10.2381L20.3098 11.0134L20.3124 11.0113L19.6782 10.2381ZM12.2885 13.0194L12.2306 14.0177L12.2381 14.0182L12.2455 14.0185L12.2885 13.0194ZM10.0822 12.6463L10.3284 11.6771L10.3275 11.6769L10.0822 12.6463ZM5.09546 12.4002L5.26915 13.385L5.27936 13.3831L5.09546 12.4002ZM4.988 12.4191L4.81432 11.4343L4.81165 11.4348L4.988 12.4191ZM2.54238 13.2057L2.97397 14.1078L2.97596 14.1069L2.54238 13.2057ZM3 1C3 0.447715 2.55228 0 2 0C1.44772 0 1 0.447715 1 1H2H3ZM1 24V25H3V24H2H1ZM2 13.42L1.0015 13.4748C1.00188 13.4813 1.00302 13.4978 1.00386 13.5079C1.00568 13.5266 1.01464 13.591 1.02356 13.6363C1.11519 13.8867 2.17787 14.405 2.92333 13.8052C2.96085 13.6984 2.99077 13.5573 2.99454 13.5265C2.99597 13.512 2.9978 13.4893 2.99835 13.4808C2.99867 13.4753 2.99915 13.4659 2.99933 13.4618C2.99967 13.4537 2.99986 13.447 2.99995 13.4435C3.00029 13.4308 3.00044 13.4171 3.00053 13.4082C3.00074 13.387 3.00093 13.3558 3.00109 13.3171C3.00142 13.2388 3.00171 13.1213 3.00196 12.9709C3.00247 12.6697 3.00282 12.2332 3.00306 11.7063C3.00354 10.6522 3.00355 9.23465 3.00328 7.80987C3.00276 4.97156 3.00119 2.07548 2.9999 2.00486L2.00007 2.02318L1.00023 2.04151C1.00017 2.03782 1.00033 2.07547 1.00049 2.17342C1.00064 2.26296 1.00079 2.39108 1.00095 2.55234C1.00126 2.8748 1.00158 3.32904 1.00188 3.8706C1.00248 4.95368 1.00302 6.38564 1.00328 7.81024C1.00355 9.23488 1.00354 10.652 1.00306 11.7054C1.00282 12.2322 1.00247 12.6676 1.00197 12.9675C1.00171 13.1177 1.00143 13.233 1.00111 13.3086C1.00095 13.3469 1.00078 13.373 1.00063 13.388C1.00054 13.3972 1.0005 13.3963 1.00064 13.391C1.00069 13.3893 1.00083 13.3841 1.00112 13.3771C1.00128 13.3737 1.00173 13.3648 1.00203 13.3596C1.00255 13.3515 1.00435 13.3291 1.00576 13.3149C1.0095 13.2843 1.0394 13.1434 1.0769 13.0366C1.82233 12.4369 2.88499 12.9551 2.97659 13.2054C2.98548 13.2507 2.99442 13.3148 2.99622 13.3332C2.99703 13.3431 2.99814 13.3591 2.9985 13.3652L2 13.42ZM2.00007 2.02318L2.9999 2.00486C2.99999 2.01003 3.00009 2.01759 3.00005 2.02679C3.00003 2.03053 2.99998 2.0395 2.99965 2.05096C2.99954 2.05495 2.99912 2.06963 2.99788 2.08841C2.99745 2.09476 2.99575 2.12101 2.99131 2.15434C2.98966 2.16671 2.98369 2.21158 2.96949 2.26766C2.96327 2.29221 2.94612 2.35748 2.91057 2.43577C2.89269 2.47513 2.85803 2.54508 2.79966 2.6228C2.74691 2.69304 2.62718 2.83405 2.41966 2.92998C2.17414 3.04347 1.88586 3.05535 1.62336 2.9486C1.40072 2.85806 1.27062 2.71267 1.21292 2.63904C1.10242 2.49802 1.05913 2.36191 1.05072 2.3365C1.02291 2.25248 1.01303 2.18311 1.01148 2.17293C1.00518 2.13157 1.00298 2.09872 1.00258 2.09311C1.0011 2.07226 1.00063 2.05592 1.00051 2.05213C1.00016 2.04017 1.0001 2.03083 1.00008 2.0272C1.00004 2.01798 1.00013 2.01048 1.00022 2.00555L2.00007 2.02318L2.99991 2.04082C3.00001 2.03527 3.00011 2.02731 3.00006 2.01779C3.00004 2.014 2.99998 2.00455 2.99963 1.99251C2.99951 1.98869 2.99904 1.97232 2.99756 1.95145C2.99716 1.94584 2.99496 1.91297 2.98865 1.87161C2.9871 1.86143 2.97722 1.79206 2.94941 1.70804C2.941 1.68263 2.89771 1.54652 2.78721 1.4055C2.72951 1.33186 2.59941 1.18647 2.37677 1.09593C2.11427 0.989186 1.82599 1.00106 1.58047 1.11456C1.37295 1.21048 1.25322 1.3515 1.20047 1.42173C1.1421 1.49945 1.10744 1.5694 1.08956 1.60877C1.05401 1.68705 1.03686 1.75232 1.03064 1.77687C1.01644 1.83296 1.01047 1.87783 1.00882 1.89021C1.00438 1.92354 1.00267 1.9498 1.00225 1.95616C1.00101 1.97495 1.00059 1.98967 1.00047 1.9937C1.00014 2.00523 1.00009 2.01432 1.00007 2.01821C1.00003 2.02771 1.00013 2.03573 1.00023 2.04151L2.00007 2.02318ZM2.00007 2.02318L2.26095 2.98855L2.33832 2.96765L2.07743 2.00228L1.81655 1.03691L1.73918 1.05782L2.00007 2.02318ZM2.07743 2.00228L2.27494 2.98258C2.66436 2.90412 3.09828 2.92261 3.69287 2.92213L3.69206 1.92213L3.69125 0.922128C3.23748 0.922496 2.52083 0.892851 1.87993 1.02197L2.07743 2.00228ZM3.69206 1.92213L3.69294 2.92213L3.79731 2.92204L3.79643 1.92204L3.79555 0.922036L3.69118 0.922128L3.69206 1.92213ZM3.79643 1.92204L3.79505 2.92204C6.47715 2.92572 8.97547 3.55096 11.1731 4.88222L11.6912 4.02691L12.2094 3.1716C9.66097 1.62788 6.79581 0.926152 3.7978 0.922037L3.79643 1.92204ZM11.6912 4.02691L11.174 4.88274C13.5547 6.32165 16.2267 7.07446 19.0793 7.0774L19.0803 6.0774L19.0813 5.0774C16.5911 5.07483 14.2764 4.4209 12.2085 3.17108L11.6912 4.02691ZM19.0803 6.0774L19.0786 7.0774L19.1844 7.07758L19.1861 6.07758L19.1878 5.07759L19.082 5.0774L19.0803 6.0774ZM19.1861 6.07758L19.1865 7.07758C20.0907 7.07725 20.992 7.00346 21.892 6.8359L21.709 5.85279L21.526 4.86968C20.7592 5.01244 19.9811 5.07729 19.1858 5.07758L19.1861 6.07758ZM21.709 5.85279L21.8891 6.83645C22.059 6.80534 22.1211 6.80118 22.1552 6.80241C22.1666 6.80283 22.1714 6.8039 22.1744 6.80466C22.1778 6.80551 22.19 6.80881 22.2141 6.82062L22.6548 5.92298L23.0956 5.02535C22.4665 4.71648 21.9323 4.79529 21.5289 4.86914L21.709 5.85279ZM22.6548 5.92298L22.0488 6.71842C22.0801 6.74227 22.0923 6.75348 22.0946 6.75567C22.0956 6.75664 22.0838 6.74548 22.0678 6.72298C22.051 6.69918 22.0362 6.67226 22.0255 6.64546C22.0153 6.62002 22.0127 6.60471 22.013 6.60651L22.9972 6.42976L23.9815 6.25301C23.9384 6.01321 23.8522 5.78175 23.6994 5.56632C23.5575 5.3661 23.3897 5.22572 23.2609 5.12755L22.6548 5.92298ZM22.9972 6.42976L21.9998 6.5006C22.0005 6.51121 21.9989 6.50293 22.0028 6.48314C22.0067 6.46289 22.0129 6.44847 22.0148 6.44468C22.0152 6.44384 22.0086 6.45745 21.9831 6.49283C21.956 6.53029 21.9203 6.57524 21.8628 6.64534L22.6364 7.27906L23.41 7.91278C23.6449 7.62603 24.0506 7.14576 23.9947 6.35891L22.9972 6.42976ZM22.6364 7.27906L21.8577 6.65169L21.7445 6.79224L22.5232 7.41962L23.3019 8.04699L23.4151 7.90644L22.6364 7.27906ZM22.5232 7.41962L21.7491 6.78657C21.3582 7.26449 20.9215 7.72264 20.4551 8.18936L21.1624 8.89625L21.8697 9.60314C22.3533 9.11923 22.8443 8.60665 23.2973 8.05266L22.5232 7.41962ZM21.1624 8.89625L20.4522 8.19221L20.3184 8.32716L21.0286 9.03119L21.7388 9.73522L21.8725 9.60028L21.1624 8.89625ZM21.0286 9.03119L20.3192 8.3264C19.9804 8.66743 19.6725 8.96635 19.3385 9.22786L19.9549 10.0153L20.5714 10.8027C21.0107 10.4587 21.393 10.0832 21.738 9.73598L21.0286 9.03119ZM19.9549 10.0153L19.3362 9.22968C19.2365 9.30818 19.1393 9.38678 19.044 9.46495L19.6782 10.2381L20.3124 11.0113C20.4002 10.9392 20.4869 10.8692 20.5737 10.8008L19.9549 10.0153ZM19.6782 10.2381L19.0465 9.46286C17.1412 11.0152 14.7716 12.1253 12.3314 12.0203L12.2885 13.0194L12.2455 14.0185C15.3409 14.1516 18.177 12.7511 20.3098 11.0134L19.6782 10.2381ZM12.2885 13.0194L12.3463 12.0211C11.6788 11.9824 11.0267 11.8545 10.3284 11.6771L10.0822 12.6463L9.83599 13.6156C10.5955 13.8085 11.3848 13.9687 12.2306 14.0177L12.2885 13.0194ZM10.0822 12.6463L10.3275 11.6769C8.61316 11.2432 6.73897 11.0753 4.91156 11.4172L5.09546 12.4002L5.27936 13.3831C6.75373 13.1073 8.32714 13.2339 9.83697 13.6158L10.0822 12.6463ZM5.09546 12.4002L4.92178 11.4154L4.81432 11.4343L4.988 12.4191L5.16169 13.4039L5.26914 13.385L5.09546 12.4002ZM4.988 12.4191L4.81165 11.4348C3.87884 11.6019 2.95634 11.8968 2.10879 12.3046L2.54238 13.2057L2.97596 14.1069C3.65552 13.7799 4.40442 13.5396 5.16436 13.4034L4.988 12.4191ZM2.54238 13.2057L2.11078 12.3037C2.12927 12.2948 2.13784 12.2917 2.12064 12.2988C2.10919 12.3035 2.09244 12.3103 2.07019 12.3191C2.02591 12.3367 1.9701 12.3584 1.91097 12.3813C1.85401 12.4033 1.79154 12.4274 1.74225 12.4465C1.69998 12.4629 1.64317 12.485 1.60699 12.5005L2 13.42L2.39301 14.3395C2.39097 14.3404 2.41069 14.3324 2.46608 14.3109C2.51445 14.2921 2.57078 14.2705 2.63253 14.2466C2.69211 14.2235 2.75491 14.1991 2.80792 14.1781C2.83431 14.1676 2.86087 14.1569 2.88475 14.1471C2.90287 14.1396 2.93878 14.1246 2.97397 14.1078L2.54238 13.2057ZM2 1H1V24H2H3V1H2Z" fill="#999999"/>
</svg>
