<svg width="240" height="25" viewBox="0 0 240 25" fill="none" xmlns="http://www.w3.org/2000/svg">
<path fill-rule="evenodd" clip-rule="evenodd" d="M24.0585 12.7723C24.0585 11.9228 23.982 11.106 23.8401 10.322H12.5305V14.9557H18.9931C18.7148 16.4531 17.8687 17.7219 16.5969 18.5712V21.577H20.4778C22.7485 19.4915 24.0585 16.4205 24.0585 12.7723Z" fill="#4285F4"/>
<path fill-rule="evenodd" clip-rule="evenodd" d="M12.5304 24.479C15.7726 24.479 18.491 23.4065 20.4778 21.577L16.5969 18.5712C15.5216 19.29 14.1461 19.7145 12.5304 19.7145C9.40275 19.7145 6.75538 17.6073 5.8111 14.7758H1.79927V17.8796C3.77522 21.7946 7.83613 24.479 12.5304 24.479Z" fill="#34A853"/>
<path fill-rule="evenodd" clip-rule="evenodd" d="M5.8111 14.7758C5.57094 14.0571 5.43456 13.2896 5.43456 12.5001C5.43456 11.7105 5.57104 10.9428 5.81121 10.2241V7.12031H1.79937C0.986042 8.7375 0.522102 10.5671 0.522102 12.5001C0.522102 14.433 0.985939 16.2624 1.79927 17.8796L5.8111 14.7758Z" fill="#FBBC05"/>
<path fill-rule="evenodd" clip-rule="evenodd" d="M12.5304 5.28531C14.2934 5.28531 15.8763 5.88969 17.1208 7.07667L20.565 3.64083C18.4855 1.70781 15.7672 0.520833 12.5304 0.520833C7.83613 0.520833 3.77532 3.20521 1.79937 7.12031L5.81121 10.2241C6.75548 7.3926 9.40275 5.28531 12.5304 5.28531Z" fill="#EA4335"/>
<path d="M51.0029 13.9282H53.5522C53.4706 14.898 53.1987 15.7627 52.7364 16.5222C52.2741 17.275 51.625 17.8683 50.7888 18.3024C49.9526 18.7365 48.9362 18.9534 47.7398 18.9534C46.8219 18.9534 45.996 18.7907 45.2618 18.4652C44.5276 18.1329 43.8988 17.6649 43.3753 17.0614C42.8519 16.451 42.4507 15.7152 42.172 14.854C41.9001 13.9926 41.7641 13.0297 41.7641 11.9649V10.7341C41.7641 9.66938 41.9035 8.70635 42.1822 7.845C42.4677 6.98375 42.8756 6.24792 43.4059 5.6376C43.9362 5.02052 44.5718 4.54917 45.3127 4.22365C46.0606 3.89813 46.9001 3.73531 47.8315 3.73531C49.0144 3.73531 50.0138 3.9524 50.8295 4.38635C51.6453 4.82042 52.2776 5.42063 52.7262 6.18698C53.1817 6.95323 53.4605 7.83146 53.5624 8.82167H51.0131C50.9451 8.18417 50.7955 7.63823 50.5644 7.18385C50.3401 6.72948 50.007 6.38365 49.5651 6.14625C49.1231 5.90208 48.5453 5.78 47.8315 5.78C47.2468 5.78 46.737 5.88854 46.3019 6.10552C45.8668 6.3226 45.5031 6.64135 45.2108 7.06177C44.9185 7.48219 44.6975 8.00104 44.548 8.61812C44.4052 9.22854 44.3338 9.92698 44.3338 10.7137V11.9649C44.3338 12.7109 44.3984 13.3891 44.5276 13.9995C44.6636 14.603 44.8675 15.1218 45.1394 15.5558C45.4181 15.9899 45.7717 16.3255 46.1999 16.5629C46.6282 16.8003 47.1415 16.919 47.7398 16.919C48.4672 16.919 49.0552 16.8036 49.5039 16.5731C49.9593 16.3425 50.3027 16.0068 50.5338 15.566C50.7717 15.1184 50.9281 14.5725 51.0029 13.9282ZM55.1634 13.3687V13.1348C55.1634 12.3414 55.2789 11.6055 55.5101 10.9273C55.7412 10.2424 56.0743 9.64896 56.5094 9.14708C56.9513 8.63854 57.4884 8.24521 58.1206 7.96708C58.7596 7.68229 59.4802 7.5399 60.2825 7.5399C61.0914 7.5399 61.812 7.68229 62.4443 7.96708C63.0833 8.24521 63.6237 8.63854 64.0656 9.14708C64.5075 9.64896 64.8441 10.2424 65.0751 10.9273C65.3063 11.6055 65.4218 12.3414 65.4218 13.1348V13.3687C65.4218 14.1622 65.3063 14.898 65.0751 15.5761C64.8441 16.2544 64.5075 16.8477 64.0656 17.3564C63.6237 17.8582 63.0867 18.2516 62.4544 18.5364C61.8222 18.8144 61.105 18.9534 60.3028 18.9534C59.4939 18.9534 58.7698 18.8144 58.1308 18.5364C57.4986 18.2516 56.9615 17.8582 56.5197 17.3564C56.0778 16.8477 55.7412 16.2544 55.5101 15.5761C55.2789 14.898 55.1634 14.1622 55.1634 13.3687ZM57.6209 13.1348V13.3687C57.6209 13.8637 57.672 14.3318 57.7739 14.7725C57.8759 15.2133 58.0356 15.5999 58.2532 15.9322C58.4707 16.2645 58.7495 16.5256 59.0893 16.7155C59.4292 16.9054 59.8338 17.0003 60.3028 17.0003C60.7583 17.0003 61.1526 16.9054 61.4857 16.7155C61.8256 16.5256 62.1044 16.2645 62.3219 15.9322C62.5394 15.5999 62.6992 15.2133 62.8012 14.7725C62.9099 14.3318 62.9643 13.8637 62.9643 13.3687V13.1348C62.9643 12.6465 62.9099 12.1853 62.8012 11.7512C62.6992 11.3105 62.5361 10.9205 62.3117 10.5815C62.0942 10.2424 61.8155 9.97792 61.4755 9.78802C61.1424 9.59135 60.7447 9.49302 60.2825 9.49302C59.8202 9.49302 59.419 9.59135 59.0791 9.78802C58.746 9.97792 58.4707 10.2424 58.2532 10.5815C58.0356 10.9205 57.8759 11.3105 57.7739 11.7512C57.672 12.1853 57.6209 12.6465 57.6209 13.1348ZM69.9189 10.0932V18.75H67.4614V7.74333H69.7762L69.9189 10.0932ZM69.4804 12.8398L68.685 12.8296C68.6919 12.0497 68.8006 11.3343 69.0113 10.6832C69.2289 10.0322 69.528 9.47271 69.9087 9.00469C70.2962 8.53677 70.7584 8.1774 71.2955 7.92646C71.8326 7.66875 72.4308 7.5399 73.0903 7.5399C73.6205 7.5399 74.0998 7.61448 74.528 7.76365C74.9631 7.90604 75.3336 8.1401 75.6396 8.46563C75.9523 8.79115 76.1902 9.215 76.3534 9.73719C76.5165 10.2525 76.5982 10.8867 76.5982 11.6394V18.75H74.1304V11.6293C74.1304 11.1002 74.0522 10.6832 73.8959 10.378C73.7462 10.066 73.5254 9.84562 73.233 9.71677C72.9475 9.58115 72.5906 9.51333 72.1623 9.51333C71.7408 9.51333 71.3635 9.60146 71.0304 9.77781C70.6973 9.95417 70.4151 10.1949 70.184 10.5001C69.9596 10.8052 69.7863 11.1579 69.6639 11.558C69.5416 11.9581 69.4804 12.3854 69.4804 12.8398ZM84.1646 7.74333V9.53365H77.9441V7.74333H84.1646ZM79.7389 5.0476H82.1965V15.7084C82.1965 16.0475 82.2441 16.3085 82.3392 16.4917C82.4412 16.668 82.5805 16.7867 82.7573 16.8477C82.9341 16.9087 83.1414 16.9393 83.3793 16.9393C83.5493 16.9393 83.7124 16.9292 83.8688 16.9088C84.0252 16.8884 84.1509 16.8681 84.2461 16.8477L84.2564 18.7195C84.0523 18.7805 83.8144 18.8348 83.5425 18.8823C83.2774 18.9297 82.9715 18.9534 82.6248 18.9534C82.0605 18.9534 81.5608 18.8551 81.1257 18.6584C80.6906 18.455 80.3507 18.126 80.106 17.6717C79.8613 17.2173 79.7389 16.6138 79.7389 15.861V5.0476ZM88.6921 7.74333V18.75H86.2244V7.74333H88.6921ZM86.0613 4.85437C86.0613 4.48135 86.1836 4.17281 86.4283 3.92865C86.6799 3.67771 87.0265 3.55229 87.4684 3.55229C87.9036 3.55229 88.2469 3.67771 88.4984 3.92865C88.7499 4.17281 88.8754 4.48135 88.8754 4.85437C88.8754 5.22052 88.7499 5.52573 88.4984 5.7699C88.2469 6.01396 87.9036 6.13604 87.4684 6.13604C87.0265 6.13604 86.6799 6.01396 86.4283 5.7699C86.1836 5.52573 86.0613 5.22052 86.0613 4.85437ZM93.8218 10.0932V18.75H91.3637V7.74333H93.6787L93.8218 10.0932ZM93.3832 12.8398L92.5875 12.8296C92.5938 12.0497 92.7035 11.3343 92.9133 10.6832C93.1316 10.0322 93.4302 9.47271 93.8113 9.00469C94.1987 8.53677 94.6613 8.1774 95.1981 7.92646C95.7348 7.66875 96.3331 7.5399 96.993 7.5399C97.5235 7.5399 98.0028 7.61448 98.4309 7.76365C98.8653 7.90604 99.236 8.1401 99.5419 8.46563C99.8552 8.79115 100.092 9.215 100.256 9.73719C100.419 10.2525 100.501 10.8867 100.501 11.6394V18.75H98.0331V11.6293C98.0331 11.1002 97.9548 10.6832 97.7981 10.378C97.6488 10.066 97.4274 9.84562 97.1351 9.71677C96.85 9.58115 96.4929 9.51333 96.0647 9.51333C95.6429 9.51333 95.2659 9.60146 94.9328 9.77781C94.5997 9.95417 94.3178 10.1949 94.087 10.5001C93.8625 10.8052 93.6892 11.1579 93.566 11.558C93.4438 11.9581 93.3832 12.3854 93.3832 12.8398ZM109.648 16.156V7.74333H112.115V18.75H109.791L109.648 16.156ZM109.994 13.8672L110.82 13.8469C110.82 14.586 110.739 15.2676 110.576 15.8916C110.412 16.5086 110.16 17.0478 109.821 17.509C109.481 17.9633 109.046 18.3194 108.516 18.5771C107.985 18.828 107.349 18.9534 106.609 18.9534C106.071 18.9534 105.578 18.8754 105.131 18.7195C104.682 18.5635 104.294 18.3227 103.967 17.9972C103.648 17.6717 103.4 17.2478 103.224 16.7256C103.046 16.2034 102.959 15.5796 102.959 14.854V7.74333H105.416V14.8743C105.416 15.2744 105.464 15.6101 105.559 15.8814C105.654 16.1458 105.783 16.3595 105.946 16.5222C106.109 16.685 106.299 16.8003 106.517 16.8681C106.734 16.9359 106.966 16.9698 107.211 16.9698C107.91 16.9698 108.462 16.8342 108.863 16.5629C109.271 16.2849 109.559 15.9119 109.729 15.444C109.906 14.976 109.994 14.4504 109.994 13.8672ZM119.498 18.9534C118.682 18.9534 117.945 18.8212 117.285 18.5568C116.632 18.2854 116.075 17.9091 115.613 17.4276C115.158 16.946 114.807 16.3798 114.563 15.7287C114.318 15.0777 114.195 14.3758 114.195 13.623V13.2161C114.195 12.3549 114.322 11.575 114.573 10.8765C114.825 10.1779 115.175 9.58115 115.624 9.08615C116.072 8.58427 116.602 8.20104 117.214 7.93656C117.826 7.67208 118.489 7.5399 119.202 7.5399C119.991 7.5399 120.681 7.67208 121.273 7.93656C121.864 8.20104 122.354 8.57406 122.741 9.05562C123.136 9.53031 123.427 10.0966 123.618 10.7544C123.816 11.4122 123.914 12.1378 123.914 12.9314V13.9791H115.389V12.2193H121.487V12.0259C121.473 11.5851 121.385 11.1715 121.222 10.7849C121.065 10.3983 120.824 10.0864 120.497 9.84906C120.171 9.61167 119.736 9.49302 119.192 9.49302C118.785 9.49302 118.421 9.58115 118.102 9.7575C117.788 9.92698 117.526 10.1746 117.316 10.5001C117.105 10.8256 116.943 11.219 116.827 11.6801C116.718 12.1345 116.664 12.6465 116.664 13.2161V13.623C116.664 14.1046 116.727 14.5522 116.857 14.9658C116.993 15.3727 117.19 15.7287 117.449 16.034C117.707 16.3391 118.019 16.5799 118.387 16.7561C118.754 16.9257 119.172 17.0105 119.641 17.0105C120.233 17.0105 120.759 16.8918 121.222 16.6545C121.684 16.4171 122.085 16.0815 122.425 15.6474L123.719 16.8986C123.482 17.2445 123.172 17.5768 122.792 17.8955C122.411 18.2075 121.945 18.4618 121.395 18.6584C120.851 18.8551 120.219 18.9534 119.498 18.9534ZM134.029 16.3085L136.579 7.74333H138.149L137.721 10.3068L135.151 18.75H133.744L134.029 16.3085ZM132.53 7.74333L134.519 16.3493L134.682 18.75H133.112L130.124 7.74333H132.53ZM140.535 16.2476L142.463 7.74333H144.859L141.881 18.75H140.311L140.535 16.2476ZM138.415 7.74333L140.933 16.2069L141.25 18.75H139.842L137.242 10.2967L136.813 7.74333H138.415ZM149.163 7.74333V18.75H146.694V7.74333H149.163ZM146.531 4.85437C146.531 4.48135 146.653 4.17281 146.899 3.92865C147.15 3.67771 147.497 3.55229 147.939 3.55229C148.373 3.55229 148.717 3.67771 148.968 3.92865C149.22 4.17281 149.345 4.48135 149.345 4.85437C149.345 5.22052 149.22 5.52573 148.968 5.7699C148.717 6.01396 148.373 6.13604 147.939 6.13604C147.497 6.13604 147.15 6.01396 146.899 5.7699C146.653 5.52573 146.531 5.22052 146.531 4.85437ZM156.913 7.74333V9.53365H150.691V7.74333H156.913ZM152.486 5.0476H154.944V15.7084C154.944 16.0475 154.991 16.3085 155.086 16.4917C155.189 16.668 155.329 16.7867 155.505 16.8477C155.682 16.9087 155.889 16.9393 156.127 16.9393C156.297 16.9393 156.46 16.9292 156.616 16.9088C156.773 16.8884 156.899 16.8681 156.994 16.8477L157.003 18.7195C156.8 18.7805 156.562 18.8348 156.29 18.8823C156.025 18.9297 155.719 18.9534 155.372 18.9534C154.809 18.9534 154.308 18.8551 153.873 18.6584C153.439 18.455 153.098 18.126 152.854 17.6717C152.608 17.2173 152.486 16.6138 152.486 15.861V5.0476ZM161.236 3.125V18.75H158.788V3.125H161.236ZM160.808 12.8398L160.012 12.8296C160.019 12.07 160.125 11.3681 160.328 10.7239C160.539 10.0796 160.832 9.5201 161.205 9.04542C161.585 8.56396 162.042 8.19427 162.571 7.93656C163.102 7.67208 163.69 7.5399 164.336 7.5399C164.88 7.5399 165.369 7.61448 165.804 7.76365C166.246 7.91292 166.627 8.15365 166.946 8.48594C167.266 8.81146 167.507 9.23865 167.67 9.76771C167.84 10.2899 167.925 10.9273 167.925 11.6801V18.75H165.457V11.6598C165.457 11.1307 165.379 10.7103 165.223 10.3983C165.073 10.0864 164.853 9.8626 164.56 9.72698C164.268 9.58458 163.911 9.51333 163.489 9.51333C163.047 9.51333 162.657 9.60146 162.316 9.77781C161.983 9.95417 161.705 10.1949 161.481 10.5001C161.257 10.8052 161.086 11.1579 160.97 11.558C160.862 11.9581 160.808 12.3854 160.808 12.8398ZM187.259 11.1817V16.8376C187.048 17.1156 186.718 17.4208 186.27 17.7531C185.829 18.0786 185.24 18.3601 184.506 18.5974C183.772 18.8348 182.858 18.9534 181.763 18.9534C180.831 18.9534 179.978 18.7975 179.203 18.4855C178.428 18.1668 177.759 17.7022 177.194 17.0919C176.638 16.4816 176.205 15.739 175.899 14.8641C175.593 13.9825 175.441 12.9788 175.441 11.853V10.8256C175.441 9.70667 175.58 8.70969 175.859 7.8349C176.145 6.95323 176.552 6.20729 177.082 5.59687C177.613 4.98656 178.252 4.52542 179 4.21344C179.755 3.89469 180.608 3.73531 181.559 3.73531C182.775 3.73531 183.782 3.93875 184.578 4.34573C185.38 4.74583 185.998 5.30187 186.433 6.01396C186.869 6.72604 187.143 7.5399 187.259 8.45542H184.751C184.67 7.94 184.51 7.47885 184.272 7.07198C184.04 6.665 183.707 6.34625 183.273 6.11573C182.844 5.87833 182.287 5.75969 181.6 5.75969C181.009 5.75969 180.489 5.87156 180.04 6.09542C179.591 6.31917 179.217 6.64812 178.918 7.08208C178.626 7.51615 178.404 8.0451 178.255 8.66906C178.106 9.29292 178.031 10.005 178.031 10.8052V11.853C178.031 12.6669 178.116 13.3891 178.285 14.0198C178.463 14.6505 178.714 15.1828 179.04 15.6169C179.373 16.0509 179.778 16.3798 180.254 16.6036C180.73 16.8206 181.267 16.9292 181.865 16.9292C182.45 16.9292 182.929 16.8817 183.303 16.7867C183.677 16.685 183.972 16.5662 184.19 16.4306C184.414 16.2882 184.587 16.1526 184.71 16.0237V13.0839H181.621V11.1817H187.259ZM189.38 13.3687V13.1348C189.38 12.3414 189.496 11.6055 189.727 10.9273C189.959 10.2424 190.292 9.64896 190.726 9.14708C191.169 8.63854 191.706 8.24521 192.337 7.96708C192.976 7.68229 193.697 7.5399 194.5 7.5399C195.308 7.5399 196.029 7.68229 196.661 7.96708C197.3 8.24521 197.84 8.63854 198.283 9.14708C198.725 9.64896 199.061 10.2424 199.292 10.9273C199.523 11.6055 199.639 12.3414 199.639 13.1348V13.3687C199.639 14.1622 199.523 14.898 199.292 15.5761C199.061 16.2544 198.725 16.8477 198.283 17.3564C197.84 17.8582 197.304 18.2516 196.672 18.5364C196.039 18.8144 195.322 18.9534 194.52 18.9534C193.71 18.9534 192.987 18.8144 192.348 18.5364C191.716 18.2516 191.178 17.8582 190.737 17.3564C190.295 16.8477 189.959 16.2544 189.727 15.5761C189.496 14.898 189.38 14.1622 189.38 13.3687ZM191.838 13.1348V13.3687C191.838 13.8637 191.889 14.3318 191.991 14.7725C192.093 15.2133 192.253 15.5999 192.47 15.9322C192.688 16.2645 192.967 16.5256 193.306 16.7155C193.647 16.9054 194.051 17.0003 194.52 17.0003C194.975 17.0003 195.37 16.9054 195.703 16.7155C196.042 16.5256 196.321 16.2645 196.539 15.9322C196.756 15.5999 196.916 15.2133 197.018 14.7725C197.127 14.3318 197.181 13.8637 197.181 13.3687V13.1348C197.181 12.6465 197.127 12.1853 197.018 11.7512C196.916 11.3105 196.753 10.9205 196.529 10.5815C196.312 10.2424 196.033 9.97792 195.692 9.78802C195.359 9.59135 194.961 9.49302 194.5 9.49302C194.037 9.49302 193.636 9.59135 193.296 9.78802C192.963 9.97792 192.688 10.2424 192.47 10.5815C192.253 10.9205 192.093 11.3105 191.991 11.7512C191.889 12.1853 191.838 12.6465 191.838 13.1348ZM201.23 13.3687V13.1348C201.23 12.3414 201.346 11.6055 201.576 10.9273C201.807 10.2424 202.14 9.64896 202.576 9.14708C203.017 8.63854 203.555 8.24521 204.187 7.96708C204.826 7.68229 205.546 7.5399 206.348 7.5399C207.158 7.5399 207.878 7.68229 208.511 7.96708C209.15 8.24521 209.69 8.63854 210.132 9.14708C210.574 9.64896 210.911 10.2424 211.141 10.9273C211.372 11.6055 211.488 12.3414 211.488 13.1348V13.3687C211.488 14.1622 211.372 14.898 211.141 15.5761C210.911 16.2544 210.574 16.8477 210.132 17.3564C209.69 17.8582 209.153 18.2516 208.52 18.5364C207.889 18.8144 207.171 18.9534 206.369 18.9534C205.56 18.9534 204.836 18.8144 204.197 18.5364C203.565 18.2516 203.028 17.8582 202.586 17.3564C202.144 16.8477 201.807 16.2544 201.576 15.5761C201.346 14.898 201.23 14.1622 201.23 13.3687ZM203.687 13.1348V13.3687C203.687 13.8637 203.738 14.3318 203.84 14.7725C203.943 15.2133 204.102 15.5999 204.32 15.9322C204.537 16.2645 204.816 16.5256 205.156 16.7155C205.495 16.9054 205.9 17.0003 206.369 17.0003C206.825 17.0003 207.219 16.9054 207.552 16.7155C207.892 16.5256 208.171 16.2645 208.388 15.9322C208.606 15.5999 208.766 15.2133 208.867 14.7725C208.977 14.3318 209.031 13.8637 209.031 13.3687V13.1348C209.031 12.6465 208.977 12.1853 208.867 11.7512C208.766 11.3105 208.602 10.9205 208.378 10.5815C208.16 10.2424 207.881 9.97792 207.542 9.78802C207.209 9.59135 206.811 9.49302 206.348 9.49302C205.887 9.49302 205.485 9.59135 205.146 9.78802C204.812 9.97792 204.537 10.2424 204.32 10.5815C204.102 10.9205 203.943 11.3105 203.84 11.7512C203.738 12.1853 203.687 12.6465 203.687 13.1348ZM220.614 7.74333H222.848V18.4448C222.848 19.435 222.637 20.2758 222.216 20.9676C221.794 21.6594 221.206 22.1849 220.451 22.5444C219.696 22.9105 218.824 23.0936 217.83 23.0936C217.41 23.0936 216.941 23.0326 216.424 22.9105C215.913 22.7885 215.417 22.5919 214.935 22.3205C214.459 22.056 214.061 21.7068 213.741 21.2728L214.894 19.8283C215.288 20.2962 215.723 20.6387 216.199 20.8557C216.676 21.0727 217.175 21.1812 217.698 21.1812C218.263 21.1812 218.742 21.0761 219.136 20.8658C219.537 20.6624 219.847 20.3606 220.064 19.9605C220.281 19.5604 220.391 19.0721 220.391 18.4957V10.2356L220.614 7.74333ZM213.12 13.3687V13.1551C213.12 12.3209 213.221 11.5615 213.426 10.8765C213.63 10.1847 213.922 9.59135 214.302 9.09625C214.683 8.59448 215.146 8.21125 215.69 7.94677C216.233 7.67552 216.849 7.5399 217.535 7.5399C218.249 7.5399 218.857 7.66875 219.36 7.92646C219.87 8.18417 220.295 8.55375 220.635 9.03521C220.975 9.51 221.24 10.0796 221.431 10.7443C221.627 11.4021 221.773 12.1345 221.869 12.9415V13.623C221.781 14.4097 221.631 15.1285 221.42 15.7796C221.21 16.4306 220.931 16.9935 220.584 17.4682C220.237 17.943 219.809 18.3092 219.3 18.5669C218.796 18.8246 218.201 18.9534 217.515 18.9534C216.842 18.9534 216.233 18.8144 215.69 18.5364C215.152 18.2583 214.691 17.8683 214.302 17.3666C213.922 16.8647 213.63 16.2747 213.426 15.5966C213.221 14.9116 213.12 14.169 213.12 13.3687ZM215.577 13.1551V13.3687C215.577 13.8706 215.625 14.3385 215.72 14.7725C215.822 15.2066 215.975 15.5897 216.179 15.9221C216.389 16.2476 216.655 16.5053 216.974 16.6951C217.301 16.8782 217.684 16.9698 218.127 16.9698C218.705 16.9698 219.176 16.8477 219.544 16.6036C219.918 16.3595 220.204 16.0305 220.4 15.6169C220.605 15.1964 220.747 14.7284 220.828 14.213V12.3719C220.788 11.9717 220.703 11.5987 220.574 11.2528C220.451 10.907 220.285 10.6052 220.074 10.3475C219.864 10.083 219.598 9.87958 219.279 9.73719C218.959 9.58792 218.582 9.51333 218.147 9.51333C217.705 9.51333 217.321 9.60833 216.995 9.79813C216.668 9.98802 216.4 10.2492 216.189 10.5815C215.985 10.9137 215.832 11.3003 215.731 11.7411C215.628 12.182 215.577 12.6532 215.577 13.1551ZM228.028 3.125V18.75H225.561V3.125H228.028ZM235.584 18.9534C234.769 18.9534 234.031 18.8212 233.371 18.5568C232.719 18.2854 232.161 17.9091 231.7 17.4276C231.243 16.946 230.893 16.3798 230.649 15.7287C230.404 15.0777 230.282 14.3758 230.282 13.623V13.2161C230.282 12.3549 230.408 11.575 230.66 10.8765C230.91 10.1779 231.261 9.58115 231.709 9.08615C232.158 8.58427 232.688 8.20104 233.3 7.93656C233.912 7.67208 234.575 7.5399 235.289 7.5399C236.077 7.5399 236.767 7.67208 237.359 7.93656C237.95 8.20104 238.44 8.57406 238.827 9.05562C239.221 9.53031 239.513 10.0966 239.705 10.7544C239.901 11.4122 240 12.1378 240 12.9314V13.9791H231.475V12.2193H237.573V12.0259C237.56 11.5851 237.471 11.1715 237.308 10.7849C237.151 10.3983 236.91 10.0864 236.583 9.84906C236.258 9.61167 235.822 9.49302 235.278 9.49302C234.871 9.49302 234.506 9.58115 234.187 9.7575C233.875 9.92698 233.613 10.1746 233.402 10.5001C233.192 10.8256 233.028 11.219 232.913 11.6801C232.804 12.1345 232.749 12.6465 232.749 13.2161V13.623C232.749 14.1046 232.814 14.5522 232.943 14.9658C233.079 15.3727 233.276 15.7287 233.534 16.034C233.793 16.3391 234.105 16.5799 234.473 16.7561C234.84 16.9257 235.258 17.0105 235.727 17.0105C236.318 17.0105 236.845 16.8918 237.308 16.6545C237.77 16.4171 238.172 16.0815 238.511 15.6474L239.806 16.8986C239.568 17.2445 239.259 17.5768 238.879 17.8955C238.497 18.2075 238.032 18.4618 237.481 18.6584C236.937 18.8551 236.305 18.9534 235.584 18.9534Z" fill="black" fill-opacity="0.54"/>
</svg>
