<svg width="25" height="25" viewBox="0 0 25 25" fill="none" xmlns="http://www.w3.org/2000/svg">
<path d="M3.875 8.71429H12.5M1 3H6.75M3.875 3V18.7143C3.875 19.0932 4.02645 19.4565 4.29603 19.7244C4.56562 19.9923 4.93125 20.1429 5.3125 20.1429H12.5M12.5 7.28571C12.5 6.90683 12.6515 6.54347 12.921 6.27556C13.1906 6.00765 13.5563 5.85714 13.9375 5.85714H22.5625C22.9437 5.85714 23.3094 6.00765 23.579 6.27556C23.8486 6.54347 24 6.90683 24 7.28571V10.1429C24 10.5217 23.8486 10.8851 23.579 11.153C23.3094 11.4209 22.9437 11.5714 22.5625 11.5714H13.9375C13.5563 11.5714 13.1906 11.4209 12.921 11.153C12.6515 10.8851 12.5 10.5217 12.5 10.1429V7.28571ZM12.5 18.7143C12.5 18.3354 12.6515 17.972 12.921 17.7041C13.1906 17.4362 13.5563 17.2857 13.9375 17.2857H22.5625C22.9437 17.2857 23.3094 17.4362 23.579 17.7041C23.8486 17.972 24 18.3354 24 18.7143V21.5714C24 21.9503 23.8486 22.3137 23.579 22.5816C23.3094 22.8495 22.9437 23 22.5625 23H13.9375C13.5563 23 13.1906 22.8495 12.921 22.5816C12.6515 22.3137 12.5 21.9503 12.5 21.5714V18.7143Z" stroke="#999999" stroke-width="2" stroke-linecap="round" stroke-linejoin="round"/>
</svg>
