<svg width="25" height="25" viewBox="0 0 25 25" fill="none" xmlns="http://www.w3.org/2000/svg">
<path d="M3.22673 19.3895C4.13536 19.4796 4.84469 20.2294 4.8449 21.1411C4.8449 22.1136 4.03815 22.9021 3.04314 22.9022C2.11019 22.9022 1.3424 22.2095 1.25017 21.3215L1.24138 21.1411L1.25017 20.9617C1.34233 20.0736 2.11014 19.38 3.04314 19.38L3.22673 19.3895ZM23.5256 19.988L23.6467 19.9938C24.242 20.053 24.7061 20.5446 24.7062 21.1421C24.7062 21.7397 24.242 22.2311 23.6467 22.2904L23.5256 22.2971L11.1115 22.2961L10.9914 22.2904C10.3957 22.2314 9.93079 21.739 9.93084 21.1411C9.93105 20.5039 10.4595 19.9873 11.1115 19.9871L23.5256 19.988ZM6.54802 10.6231C7.00662 10.1698 7.75417 10.1654 8.21795 10.6135C8.68159 11.0617 8.68602 11.7925 8.22771 12.2458L3.93084 16.4935C3.70907 16.7127 3.40636 16.8361 3.09099 16.8362C2.77566 16.8362 2.47297 16.7125 2.25115 16.4935L0.340992 14.6054L2.02068 12.9817L3.09099 14.0394L6.54802 10.6231ZM23.5256 12.7078C24.1777 12.7078 24.7061 13.2244 24.7062 13.8618C24.7062 14.4994 24.1778 15.0168 23.5256 15.0168L11.1115 15.0159L10.9914 15.0092C10.3957 14.9501 9.93079 14.4587 9.93084 13.8609C9.93104 13.2236 10.4595 12.707 11.1115 12.7068L23.5256 12.7078ZM0.350758 12.9731C0.814505 12.525 1.56205 12.5285 2.02068 12.9817L0.340992 14.6054C-0.117555 14.1521 -0.112973 13.4214 0.350758 12.9731ZM6.54802 3.3428C7.00662 2.88957 7.75417 2.88513 8.21795 3.33326C8.68159 3.78147 8.68604 4.51219 8.22771 4.96552L3.93084 9.21321C3.70907 9.43239 3.40636 9.55485 3.09099 9.55494C2.77566 9.55494 2.47297 9.43226 2.25115 9.21321L0.340992 7.32514L2.02068 5.70147L3.09099 6.75909L6.54802 3.3428ZM23.5256 5.42751C24.1777 5.42756 24.7061 5.94415 24.7062 6.58155C24.7062 7.2191 24.1778 7.73659 23.5256 7.73654L11.1115 7.73559L10.9914 7.72891C10.3957 7.66988 9.93079 7.1784 9.93084 6.5806C9.93102 5.9433 10.4595 5.42675 11.1115 5.42656L23.5256 5.42751ZM0.350758 5.69288C0.814502 5.24471 1.56205 5.24829 2.02068 5.70147L0.340992 7.32514C-0.117542 6.87182 -0.112961 6.14115 0.350758 5.69288Z" fill="#999999"/>
</svg>
