<svg width="25" height="25" viewBox="0 0 25 25" fill="none" xmlns="http://www.w3.org/2000/svg">
<g clip-path="url(#clip0_1_5401)">
<path d="M11.3722 0.00423918C11.7646 -0.0319553 12.1416 0.165941 12.3351 0.509122C12.5286 0.852505 12.503 1.27809 12.2687 1.59506C11.135 3.12883 10.5889 5.01825 10.7306 6.92025C10.8725 8.82234 11.6925 10.6106 13.0412 11.9593C14.3899 13.308 16.1782 14.128 18.0802 14.2699C19.9822 14.4116 21.8717 13.8655 23.4054 12.7318L24.0002 13.5365L24.9963 13.6283C24.7774 15.9971 23.8879 18.2551 22.4328 20.1371C20.9777 22.0189 19.0167 23.4471 16.7795 24.2552C14.5421 25.0634 12.1208 25.2182 9.79899 24.7005C7.47712 24.1828 5.35026 23.0145 3.66813 21.3324C1.986 19.6502 0.817689 17.5234 0.299968 15.2015C-0.217707 12.8797 -0.0628657 10.4584 0.74528 8.22104C1.5534 5.98379 2.98164 4.02276 4.86344 2.56772C6.74543 1.11263 9.00344 0.223146 11.3722 0.00423918ZM9.52165 2.38998C8.28381 2.75854 7.11818 3.35254 6.08708 4.14975C4.50565 5.37247 3.30525 7.02062 2.62614 8.90072C1.94714 10.7806 1.8172 12.8151 2.25212 14.766C2.68716 16.7171 3.66966 18.5038 5.08317 19.9173C6.49668 21.3308 8.28344 22.3133 10.2345 22.7484C12.1854 23.1833 14.2198 23.0534 16.0998 22.3744C17.9799 21.6953 19.628 20.4949 20.8507 18.9134C21.6481 17.8821 22.241 16.7159 22.6095 15.4779C21.1458 16.1077 19.5421 16.3842 17.9308 16.264C15.5512 16.0864 13.3144 15.0607 11.6271 13.3734C9.93978 11.686 8.91406 9.44929 8.73649 7.06967C8.61632 5.45819 8.89164 3.85386 9.52165 2.38998Z" fill="#999999"/>
</g>
<defs>
<clipPath id="clip0_1_5401">
<rect width="25" height="25" fill="white"/>
</clipPath>
</defs>
</svg>
