<svg width="25" height="25" viewBox="0 0 25 25" fill="none" xmlns="http://www.w3.org/2000/svg">
<g clip-path="url(#clip0_145_3473)">
<path d="M3.95715 23.5611L0.190315 24.9664C-0.00536489 25.04 -0.184738 24.9927 -0.347805 24.8243C-0.5 24.6664 -0.538049 24.4927 -0.461951 24.3032L1.08718 20.7823L18.894 3.57217L21.7477 6.35105L3.95715 23.5611ZM23.1827 4.99319L20.2964 2.21431L21.9434 0.635403C22.3565 0.24594 22.775 0.0354187 23.199 0.00384059C23.6338 -0.0277376 24.0361 0.135416 24.4057 0.493302L24.9601 1.03013C25.3406 1.39854 25.52 1.78801 25.4982 2.19852C25.4765 2.60904 25.2536 3.01955 24.8297 3.43007L23.1827 4.99319Z" fill="#999999"/>
</g>
<defs>
<clipPath id="clip0_145_3473">
<rect width="25" height="25" fill="white"/>
</clipPath>
</defs>
</svg>
