<svg width="25" height="25" viewBox="0 0 25 25" fill="none" xmlns="http://www.w3.org/2000/svg">
<path d="M9.59375 20.2292C10.0252 20.2292 10.375 19.8794 10.375 19.4479C10.375 19.0165 10.0252 18.6667 9.59375 18.6667V20.2292ZM11.1562 4.86458V5.64583C11.4722 5.64583 11.7571 5.45549 11.878 5.16355C11.999 4.87162 11.9321 4.53559 11.7086 4.31215L11.1562 4.86458ZM9.62534 2.22882C9.32025 1.92373 8.82558 1.92373 8.52049 2.22882C8.2154 2.53391 8.2154 3.02858 8.52049 3.33367L9.62534 2.22882ZM9.59375 18.6667H9.07321V20.2292H9.59375V18.6667ZM9.07292 5.64583H11.1562V4.08333H9.07292V5.64583ZM11.7086 4.31215L9.62534 2.22882L8.52049 3.33367L10.6039 5.41701L11.7086 4.31215ZM1 12.1562C1 16.6148 4.6147 20.2292 9.07321 20.2292V18.6667C5.47756 18.6667 2.5625 15.7518 2.5625 12.1562H1ZM2.5625 12.1562C2.5625 8.56064 5.47731 5.64583 9.07292 5.64583V4.08333C4.61436 4.08333 1 7.69769 1 12.1562H2.5625Z" fill="#999999"/>
<path d="M14.2187 19.4479V18.6666C13.9027 18.6666 13.6178 18.857 13.4969 19.1489C13.376 19.4408 13.4428 19.7768 13.6663 20.0003L14.2187 19.4479ZM15.7496 22.0836C16.0547 22.3887 16.5493 22.3887 16.8544 22.0836C17.1595 21.7785 17.1595 21.2839 16.8544 20.9788L15.7496 22.0836ZM15.7812 4.08331C15.3497 4.08331 14.9999 4.43309 14.9999 4.86456C14.9999 5.29603 15.3497 5.64581 15.7812 5.64581V4.08331ZM16.302 18.6666H14.2187V20.2291H16.302V18.6666ZM13.6663 20.0003L15.7496 22.0836L16.8544 20.9788L14.7711 18.8955L13.6663 20.0003ZM15.7812 5.64581H16.302V4.08331H15.7812V5.64581ZM22.8124 12.1562C22.8124 15.7519 19.8976 18.6666 16.302 18.6666V20.2291C20.7606 20.2291 24.3749 16.6148 24.3749 12.1562H22.8124ZM24.3749 12.1562C24.3749 7.69767 20.7606 4.08331 16.302 4.08331V5.64581C19.8976 5.64581 22.8124 8.56062 22.8124 12.1562H24.3749Z" fill="#999999"/>
</svg>
