<svg width="25" height="25" viewBox="0 0 25 25" fill="none" xmlns="http://www.w3.org/2000/svg">
<path d="M3.24063 22C2.16042 22 1.34854 21.7317 0.804997 21.195C0.268332 20.6652 0 19.8671 0 18.8007V6.19935C0 5.1329 0.268332 4.33478 0.804997 3.805C1.34854 3.26833 2.16042 3 3.24063 3H21.0951C22.1821 3 22.994 3.26833 23.5307 3.805C24.0674 4.33478 24.3357 5.1329 24.3357 6.19935V18.8007C24.3357 19.8671 24.0674 20.6652 23.5307 21.195C22.994 21.7317 22.1821 22 21.0951 22H3.24063ZM3.26127 20.3384H21.0744C21.5836 20.3384 21.9757 20.2042 22.2509 19.9359C22.533 19.6607 22.6741 19.2548 22.6741 18.7181V6.28191C22.6741 5.74525 22.533 5.34275 22.2509 5.07442C21.9757 4.7992 21.5836 4.6616 21.0744 4.6616H3.26127C2.74525 4.6616 2.34963 4.7992 2.07442 5.07442C1.7992 5.34275 1.6616 5.74525 1.6616 6.28191V18.7181C1.6616 19.2548 1.7992 19.6607 2.07442 19.9359C2.34963 20.2042 2.74525 20.3384 3.26127 20.3384ZM7.8642 20.6583V4.35198H9.48452V20.6583H7.8642ZM5.88267 8.49049H3.66377C3.5124 8.49049 3.37824 8.43201 3.26127 8.31505C3.14431 8.1912 3.08582 8.05703 3.08582 7.91255C3.08582 7.7543 3.14431 7.62013 3.26127 7.51005C3.37824 7.39308 3.5124 7.3346 3.66377 7.3346H5.88267C6.03404 7.3346 6.1682 7.39308 6.28517 7.51005C6.40902 7.62013 6.47094 7.7543 6.47094 7.91255C6.47094 8.05703 6.40902 8.1912 6.28517 8.31505C6.1682 8.43201 6.03404 8.49049 5.88267 8.49049ZM5.88267 11.1635H3.66377C3.5124 11.1635 3.37824 11.105 3.26127 10.988C3.14431 10.8711 3.08582 10.7335 3.08582 10.5752C3.08582 10.4239 3.14431 10.2931 3.26127 10.1831C3.37824 10.0661 3.5124 10.0076 3.66377 10.0076H5.88267C6.03404 10.0076 6.1682 10.0661 6.28517 10.1831C6.40902 10.2931 6.47094 10.4239 6.47094 10.5752C6.47094 10.7335 6.40902 10.8711 6.28517 10.988C6.1682 11.105 6.03404 11.1635 5.88267 11.1635ZM5.88267 13.8262H3.66377C3.5124 13.8262 3.37824 13.7711 3.26127 13.6611C3.14431 13.5441 3.08582 13.4099 3.08582 13.2586C3.08582 13.1003 3.14431 12.9661 3.26127 12.8561C3.37824 12.7391 3.5124 12.6806 3.66377 12.6806H5.88267C6.03404 12.6806 6.1682 12.7391 6.28517 12.8561C6.40902 12.9661 6.47094 13.1003 6.47094 13.2586C6.47094 13.4099 6.40902 13.5441 6.28517 13.6611C6.1682 13.7711 6.03404 13.8262 5.88267 13.8262Z" fill="#999999"/>
</svg>
