<svg width="25" height="25" viewBox="0 0 25 25" fill="none" xmlns="http://www.w3.org/2000/svg">
<g clip-path="url(#clip0_1_5395)">
<path d="M17.5 24L17.6025 24.0049C18.1066 24.0562 18.5 24.4823 18.5 25C18.5 25.5177 18.1066 25.9438 17.6025 25.9951L17.5 26H7.5C6.94772 26 6.5 25.5523 6.5 25C6.5 24.4477 6.94772 24 7.5 24H17.5ZM21.25 20.25L21.3525 20.2549C21.8566 20.3063 22.25 20.7324 22.25 21.25C22.25 21.7676 21.8566 22.1937 21.3525 22.2451L21.25 22.25H3.75C3.19772 22.25 2.75 21.8023 2.75 21.25C2.75 20.6977 3.19772 20.25 3.75 20.25H21.25ZM4 12.5C4 11.5083 4.17073 10.5545 4.48438 9.66699C4.66839 9.14631 5.23908 8.87367 5.75977 9.05762C6.28038 9.24161 6.55392 9.81238 6.37012 10.333C6.13103 11.0095 6 11.7385 6 12.5C6 13.992 6.50278 15.3639 7.34766 16.4609H17.6523C18.4972 15.3639 19 13.992 19 12.5C19 8.91016 16.0898 6 12.5 6C11.7385 6.00001 11.0095 6.13006 10.333 6.36914C9.81231 6.55311 9.24164 6.28046 9.05762 5.75977C8.87364 5.23907 9.1463 4.6684 9.66699 4.48438C10.5545 4.17071 11.5083 4.00001 12.5 4C17.1944 4 21 7.80559 21 12.5C21 13.946 20.6363 15.3075 19.999 16.5H25L25.1025 16.5049C25.6066 16.5563 26 16.9824 26 17.5C26 18.0176 25.6066 18.4437 25.1025 18.4951L25 18.5H0C-0.552285 18.5 -1 18.0523 -1 17.5C-0.999992 16.9477 -0.55228 16.5 0 16.5H5.00098C4.36367 15.3075 4 13.946 4 12.5ZM1.25 11.5L1.35254 11.5049C1.85667 11.5562 2.25 11.9823 2.25 12.5C2.25 13.0177 1.85667 13.4438 1.35254 13.4951L1.25 13.5H0C-0.552285 13.5 -1 13.0523 -1 12.5C-1 11.9477 -0.552285 11.5 0 11.5H1.25ZM25 11.5C25.5523 11.5 26 11.9477 26 12.5C26 13.0523 25.5523 13.5 25 13.5H23.75C23.1977 13.5 22.75 13.0523 22.75 12.5C22.75 11.9477 23.1977 11.5 23.75 11.5H25ZM2.9541 2.95508C3.3201 2.58908 3.89922 2.56572 4.29199 2.88574L4.36816 2.95508L4.85938 3.44531L4.92773 3.52148C5.24832 3.91426 5.22558 4.49415 4.85938 4.86035C4.49333 5.2262 3.91419 5.24877 3.52148 4.92871L3.44531 4.86035L2.9541 4.36914L2.88574 4.29297C2.56533 3.90026 2.58813 3.32125 2.9541 2.95508ZM20.6318 2.95508C21.0224 2.56471 21.6554 2.56462 22.0459 2.95508C22.4362 3.34556 22.4362 3.97865 22.0459 4.36914L21.5547 4.86035C21.1642 5.25078 20.5311 5.25073 20.1406 4.86035C19.7501 4.46985 19.7501 3.83683 20.1406 3.44629L20.6318 2.95508ZM11.5 1.25V0C11.5 -0.552268 11.9477 -0.999974 12.5 -1C13.0523 -1 13.5 -0.552285 13.5 0V1.25C13.5 1.80228 13.0523 2.25 12.5 2.25C11.9477 2.24997 11.5 1.80227 11.5 1.25Z" fill="#999999"/>
</g>
<defs>
<clipPath id="clip0_1_5395">
<rect width="25" height="25" fill="white"/>
</clipPath>
</defs>
</svg>
