<svg width="25" height="25" viewBox="0 0 25 25" fill="none" xmlns="http://www.w3.org/2000/svg">
<g clip-path="url(#clip0_1_5399)">
<path d="M11.4995 23.9585V21.8745C11.4997 21.3225 11.9475 20.8747 12.4995 20.8745C13.0517 20.8745 13.4993 21.3224 13.4995 21.8745V23.9585C13.4993 24.5106 13.0517 24.9585 12.4995 24.9585C11.9475 24.9583 11.4997 24.5105 11.4995 23.9585ZM5.16748 18.4175C5.5579 18.0271 6.19099 18.0273 6.58154 18.4175C6.97207 18.808 6.97207 19.441 6.58154 19.8315L5.10303 21.311C4.71256 21.7015 4.0795 21.7014 3.68896 21.311C3.29844 20.9205 3.29844 20.2875 3.68896 19.897L5.16748 18.4175ZM18.4175 18.4175C18.8079 18.0271 19.441 18.0273 19.8315 18.4175L21.311 19.897L21.3794 19.9731C21.6997 20.3659 21.6772 20.9449 21.311 21.311C20.9449 21.6772 20.3659 21.6997 19.9731 21.3794L19.897 21.311L18.4175 19.8315C18.0273 19.441 18.0271 18.8079 18.4175 18.4175ZM16.7085 12.4995C16.7083 10.1755 14.8236 8.2915 12.4995 8.2915C10.1756 8.29168 8.29168 10.1756 8.2915 12.4995C8.2915 14.8236 10.1755 16.7083 12.4995 16.7085C14.8237 16.7085 16.7085 14.8237 16.7085 12.4995ZM3.12451 11.4995C3.67669 11.4995 4.12434 11.9474 4.12451 12.4995C4.12451 13.0518 3.6768 13.4995 3.12451 13.4995H1.0415C0.489219 13.4995 0.0415039 13.0518 0.0415039 12.4995C0.0416796 11.9474 0.489328 11.4995 1.0415 11.4995H3.12451ZM23.9585 11.4995C24.5105 11.4997 24.9583 11.9475 24.9585 12.4995C24.9585 13.0517 24.5106 13.4993 23.9585 13.4995H21.8745C21.3224 13.4993 20.8745 13.0517 20.8745 12.4995C20.8747 11.9475 21.3225 11.4997 21.8745 11.4995H23.9585ZM3.68896 3.68896C4.05504 3.32289 4.63408 3.29938 5.02686 3.61963L5.10303 3.68896L6.58154 5.16748C6.97207 5.558 6.97207 6.19102 6.58154 6.58154C6.19102 6.97207 5.558 6.97207 5.16748 6.58154L3.68896 5.10303L3.61963 5.02686C3.29938 4.63408 3.32289 4.05504 3.68896 3.68896ZM19.897 3.68896C20.2875 3.29844 20.9205 3.29844 21.311 3.68896C21.7014 4.0795 21.7015 4.71256 21.311 5.10303L19.8315 6.58154C19.441 6.97207 18.808 6.97207 18.4175 6.58154C18.0273 6.19099 18.0271 5.5579 18.4175 5.16748L19.897 3.68896ZM11.4995 3.12451V1.0415C11.4995 0.489328 11.9474 0.0416796 12.4995 0.0415039C13.0518 0.0415039 13.4995 0.489219 13.4995 1.0415V3.12451C13.4995 3.6768 13.0518 4.12451 12.4995 4.12451C11.9474 4.12434 11.4995 3.67669 11.4995 3.12451ZM18.7085 12.4995C18.7085 15.9283 15.9283 18.7085 12.4995 18.7085C9.07089 18.7083 6.2915 15.9282 6.2915 12.4995C6.29168 9.071 9.071 6.29168 12.4995 6.2915C15.9282 6.2915 18.7083 9.07089 18.7085 12.4995Z" fill="#999999"/>
</g>
<defs>
<clipPath id="clip0_1_5399">
<rect width="25" height="25" fill="white"/>
</clipPath>
</defs>
</svg>
