<svg width="19" height="19" viewBox="0 0 19 19" fill="none" xmlns="http://www.w3.org/2000/svg">
<path d="M16.5 0H10.6602C9.99609 0 9.35938 0.261719 8.89063 0.730469L1.39063 8.23047C0.414063 9.20703 0.414063 10.7891 1.39063 11.7656L7.23047 17.6055C8.20703 18.582 9.78906 18.582 10.7656 17.6055L18.2656 10.1055C18.7383 9.63672 19 9.00391 19 8.33984V2.5C19 1.12109 17.8789 0 16.5 0ZM15.875 4.375C15.875 5.06641 15.3164 5.625 14.625 5.625C13.9336 5.625 13.375 5.06641 13.375 4.375C13.375 3.68359 13.9336 3.125 14.625 3.125C15.3164 3.125 15.875 3.68359 15.875 4.375Z" fill="#999999"/>
</svg>
