<svg width="25" height="25" viewBox="0 0 25 25" fill="none" xmlns="http://www.w3.org/2000/svg">
<g clip-path="url(#clip0_1_5379)">
<path d="M0 19.0103C0 18.61 0.128069 18.2217 0.384208 17.8454C0.640346 17.4691 0.958311 17.1008 1.3381 16.7406C1.72673 16.3803 2.11093 16.02 2.49073 15.6597C2.78219 15.3875 3.00742 15.0313 3.1664 14.5909C3.33422 14.1506 3.45787 13.6823 3.53736 13.1859C3.61685 12.6895 3.67426 12.2092 3.70959 11.7448C3.73609 10.1676 3.91715 8.78259 4.25278 7.58969C4.58841 6.38879 5.11394 5.38804 5.82936 4.58744C6.55361 3.78684 7.50309 3.1944 8.6778 2.81011C8.8986 2.02552 9.34464 1.36102 10.0159 0.816612C10.696 0.272204 11.5218 0 12.4934 0C13.4738 0 14.2996 0.272204 14.9709 0.816612C15.6509 1.36102 16.1014 2.02552 16.3222 2.81011C17.4969 3.1944 18.442 3.78684 19.1574 4.58744C19.8728 5.38804 20.3983 6.38879 20.734 7.58969C21.0784 8.78259 21.2639 10.1676 21.2904 11.7448C21.3257 12.2092 21.3831 12.6895 21.4626 13.1859C21.5421 13.6823 21.6614 14.1506 21.8203 14.5909C21.9882 15.0313 22.2178 15.3875 22.5093 15.6597C22.8891 16.02 23.2689 16.3803 23.6486 16.7406C24.0373 17.1008 24.3597 17.4691 24.6158 17.8454C24.8719 18.2217 25 18.61 25 19.0103C25 19.4506 24.8234 19.8028 24.4701 20.067C24.1168 20.3312 23.6266 20.4633 22.9995 20.4633H17.4086C17.3733 21.2399 17.1392 21.9565 16.7064 22.613C16.2825 23.2775 15.7084 23.8099 14.9841 24.2102C14.2598 24.6105 13.4296 24.8106 12.4934 24.8106C11.566 24.8106 10.7402 24.6065 10.0159 24.1981C9.29164 23.7978 8.71312 23.2694 8.28034 22.613C7.85639 21.9565 7.62674 21.2399 7.59141 20.4633H2.00053C1.37343 20.4633 0.883236 20.3312 0.529942 20.067C0.176647 19.8028 0 19.4506 0 19.0103ZM2.57022 18.65H22.4165V18.5059C22.337 18.3938 22.2046 18.2457 22.0191 18.0615C21.8424 17.8694 21.6349 17.6612 21.3964 17.4371C21.1668 17.2129 20.9327 16.9847 20.6942 16.7526C20.4557 16.5124 20.2482 16.2362 20.0715 15.9239C19.8949 15.6037 19.7447 15.2434 19.6211 14.8431C19.5063 14.4428 19.4091 13.9985 19.3296 13.5101C19.259 13.0218 19.2104 12.4854 19.1839 11.9009C19.1486 10.1556 18.9454 8.77058 18.5745 7.74581C18.2123 6.72104 17.7265 5.96047 17.1171 5.4641C16.5165 4.95972 15.8364 4.61146 15.0768 4.41931C14.9179 4.38729 14.7898 4.33125 14.6926 4.25119C14.6043 4.16312 14.5601 4.04303 14.5601 3.89092C14.5337 3.26645 14.3349 2.75807 13.964 2.36577C13.6018 1.96547 13.1116 1.76532 12.4934 1.76532C11.8839 1.76532 11.3937 1.96547 11.0228 2.36577C10.6607 2.75807 10.4663 3.26645 10.4399 3.89092C10.431 4.04303 10.3824 4.16312 10.2941 4.25119C10.2058 4.33125 10.0777 4.38729 9.90991 4.41931C9.15033 4.61146 8.46582 4.95972 7.85639 5.4641C7.25578 5.96047 6.77442 6.72104 6.41229 7.74581C6.05017 8.77058 5.85144 10.1556 5.81611 11.9009C5.78078 12.4854 5.72779 13.0218 5.65713 13.5101C5.58647 13.9985 5.48931 14.4428 5.36566 14.8431C5.24201 15.2434 5.09186 15.6037 4.91521 15.9239C4.73856 16.2362 4.531 16.5124 4.29253 16.7526C4.06289 16.9847 3.82883 17.2129 3.59036 17.4371C3.36071 17.6612 3.15315 17.8694 2.96767 18.0615C2.78219 18.2457 2.64971 18.3938 2.57022 18.5059V18.65ZM9.65819 20.4633C9.70235 21.28 9.98498 21.9244 10.5061 22.3968C11.036 22.8772 11.6985 23.1173 12.4934 23.1173C13.2971 23.1173 13.9595 22.8772 14.4807 22.3968C15.0018 21.9244 15.2888 21.28 15.3418 20.4633H9.65819Z" fill="#999999"/>
</g>
<defs>
<clipPath id="clip0_1_5379">
<rect width="25" height="25" fill="white"/>
</clipPath>
</defs>
</svg>
