<svg width="25" height="25" viewBox="0 0 25 25" fill="none" xmlns="http://www.w3.org/2000/svg">
<g clip-path="url(#clip0_1_5377)">
<path d="M16.6036 0.962243C16.6036 0.43128 17.1285 0 17.7775 0C18.4265 0 18.9514 0.43128 18.9514 0.962243V5.17739C18.9514 5.70836 18.4265 6.13964 17.7775 6.13964C17.1285 6.13964 16.6036 5.70836 16.6036 5.17739V0.962243ZM6.02417 0.962243C6.02417 0.43128 6.54907 0 7.19808 0C7.84709 0 8.37199 0.43128 8.37199 0.962243V5.17739C8.37199 5.70836 7.84709 6.13964 7.19808 6.13964C6.54907 6.13964 6.02417 5.70836 6.02417 5.17739V0.962243ZM1.30208 10.5236H23.6979V4.36773C23.6979 4.20498 23.6308 4.05647 23.523 3.94662C23.4151 3.8388 23.2666 3.77167 23.1018 3.77167H20.9554C20.5953 3.77167 20.3044 3.48076 20.3044 3.12068C20.3044 2.7606 20.5953 2.46969 20.9554 2.46969H23.1018C23.6247 2.46969 24.0987 2.68329 24.4425 3.0271C24.7864 3.3709 25 3.8449 25 4.36773V23.102C25 23.6248 24.7864 24.0988 24.4425 24.4426C24.0987 24.7864 23.6247 25 23.1018 25H1.89819C1.37533 25 0.901286 24.7864 0.557454 24.4426C0.213623 24.0968 0 23.6228 0 23.0999V4.36773C0 3.8449 0.213623 3.3709 0.557454 3.0271C0.901286 2.68329 1.37533 2.46969 1.89819 2.46969H4.19108C4.55119 2.46969 4.84212 2.7606 4.84212 3.12068C4.84212 3.48076 4.55119 3.77167 4.19108 3.77167H1.89819C1.73543 3.77167 1.58691 3.8388 1.47705 3.94662C1.36922 4.05444 1.30208 4.20295 1.30208 4.36773V10.5236ZM23.6979 10.5236H1.30208V23.0999C1.30208 23.2627 1.36922 23.4112 1.47705 23.521C1.58488 23.6289 1.7334 23.696 1.89819 23.696H23.1018C23.2646 23.696 23.4131 23.6289 23.523 23.521C23.6308 23.4132 23.6979 23.2647 23.6979 23.0999V10.5236ZM10.26 3.77167C9.8999 3.77167 9.60897 3.48076 9.60897 3.12068C9.60897 2.7606 9.8999 2.46969 10.26 2.46969H14.6322C14.9923 2.46969 15.2832 2.7606 15.2832 3.12068C15.2832 3.48076 14.9923 3.77167 14.6322 3.77167H10.26Z" fill="#999999"/>
<path d="M3.5 8.24935C3.5 8.11128 3.61193 7.99935 3.75 7.99935H21.25C21.3881 7.99935 21.5 8.11128 21.5 8.24935C21.5 8.38742 21.3881 8.49935 21.25 8.49935H3.75C3.61193 8.49935 3.5 8.38742 3.5 8.24935Z" fill="#999999"/>
</g>
<defs>
<clipPath id="clip0_1_5377">
<rect width="25" height="25" fill="white"/>
</clipPath>
</defs>
</svg>
