<svg width="25" height="25" viewBox="0 0 25 25" fill="none" xmlns="http://www.w3.org/2000/svg">
<g clip-path="url(#clip0_1_5363)">
<path fill-rule="evenodd" clip-rule="evenodd" d="M25 7.68365H0V20.1923C0 21.4673 0.506731 22.6904 1.40769 23.5913C2.30962 24.4933 3.53269 25 4.80769 25C9.07596 25 15.924 25 20.1923 25C21.4673 25 22.6904 24.4933 23.5923 23.5913C24.4933 22.6904 25 21.4673 25 20.1923V7.68365ZM5.76923 20.1837H7.69231C8.22308 20.1837 8.65385 19.7529 8.65385 19.2221C8.65385 18.6913 8.22308 18.2606 7.69231 18.2606H5.76923C5.23846 18.2606 4.80769 18.6913 4.80769 19.2221C4.80769 19.7529 5.23846 20.1837 5.76923 20.1837ZM11.5385 20.1837H13.4615C13.9923 20.1837 14.4231 19.7529 14.4231 19.2221C14.4231 18.6913 13.9923 18.2606 13.4615 18.2606H11.5385C11.0077 18.2606 10.5769 18.6913 10.5769 19.2221C10.5769 19.7529 11.0077 20.1837 11.5385 20.1837ZM17.3077 20.1837H19.2308C19.7615 20.1837 20.1923 19.7529 20.1923 19.2221C20.1923 18.6913 19.7615 18.2606 19.2308 18.2606H17.3077C16.7769 18.2606 16.3462 18.6913 16.3462 19.2221C16.3462 19.7529 16.7769 20.1837 17.3077 20.1837ZM5.76923 16.3375H7.69231C8.22308 16.3375 8.65385 15.9067 8.65385 15.376C8.65385 14.8452 8.22308 14.4144 7.69231 14.4144H5.76923C5.23846 14.4144 4.80769 14.8452 4.80769 15.376C4.80769 15.9067 5.23846 16.3375 5.76923 16.3375ZM11.5385 16.3375H13.4615C13.9923 16.3375 14.4231 15.9067 14.4231 15.376C14.4231 14.8452 13.9923 14.4144 13.4615 14.4144H11.5385C11.0077 14.4144 10.5769 14.8452 10.5769 15.376C10.5769 15.9067 11.0077 16.3375 11.5385 16.3375ZM17.3077 16.3375H19.2308C19.7615 16.3375 20.1923 15.9067 20.1923 15.376C20.1923 14.8452 19.7615 14.4144 19.2308 14.4144H17.3077C16.7769 14.4144 16.3462 14.8452 16.3462 15.376C16.3462 15.9067 16.7769 16.3375 17.3077 16.3375ZM5.76923 12.4913H7.69231C8.22308 12.4913 8.65385 12.0606 8.65385 11.5298C8.65385 10.999 8.22308 10.5683 7.69231 10.5683H5.76923C5.23846 10.5683 4.80769 10.999 4.80769 11.5298C4.80769 12.0606 5.23846 12.4913 5.76923 12.4913ZM11.5385 12.4913H13.4615C13.9923 12.4913 14.4231 12.0606 14.4231 11.5298C14.4231 10.999 13.9923 10.5683 13.4615 10.5683H11.5385C11.0077 10.5683 10.5769 10.999 10.5769 11.5298C10.5769 12.0606 11.0077 12.4913 11.5385 12.4913ZM17.3077 12.4913H19.2308C19.7615 12.4913 20.1923 12.0606 20.1923 11.5298C20.1923 10.999 19.7615 10.5683 19.2308 10.5683H17.3077C16.7769 10.5683 16.3462 10.999 16.3462 11.5298C16.3462 12.0606 16.7769 12.4913 17.3077 12.4913ZM6.73077 0V2.87596C6.73077 3.40673 6.3 3.8375 5.76923 3.8375C5.23846 3.8375 4.80769 3.40673 4.80769 2.87596V0C3.53269 0 2.30962 0.506731 1.40769 1.40769C0.506731 2.30962 0 3.53269 0 4.80769V5.76058H25V4.80769C25 3.53269 24.4933 2.30962 23.5923 1.40769C22.6904 0.506731 21.4673 0 20.1923 0V2.87596C20.1923 3.40673 19.7615 3.8375 19.2308 3.8375C18.7 3.8375 18.2692 3.40673 18.2692 2.87596V0H6.73077Z" fill="#999999"/>
</g>
<defs>
<clipPath id="clip0_1_5363">
<rect width="25" height="25" fill="white"/>
</clipPath>
</defs>
</svg>
