<svg width="170" height="149" viewBox="0 0 170 149" fill="none" xmlns="http://www.w3.org/2000/svg">
<path d="M67.1377 136.816C70.4512 136.817 73.1377 139.503 73.1377 142.816C73.1376 146.13 70.4511 148.816 67.1377 148.816H59.415C56.1014 148.816 53.4152 146.13 53.415 142.816C53.415 139.503 56.1013 136.816 59.415 136.816H67.1377ZM26.3398 130.631C27.9967 127.761 31.6654 126.778 34.5352 128.435L41.2236 132.296C44.0933 133.953 45.0768 137.622 43.4199 140.492C41.7631 143.362 38.0933 144.345 35.2236 142.688L28.5352 138.827C25.6655 137.17 24.683 133.501 26.3398 130.631ZM91.8389 127.774C94.7085 126.118 98.3782 127.1 100.035 129.97C101.692 132.839 100.709 136.509 97.8389 138.166L91.1514 142.027C88.2816 143.684 84.6119 142.701 82.9551 139.831C81.2985 136.961 82.2818 133.293 85.1514 131.636L91.8389 127.774ZM8.98438 106.54C11.8541 104.883 15.5238 105.867 17.1807 108.736L21.042 115.425C22.6987 118.295 21.7154 121.963 18.8457 123.62C15.9761 125.277 12.3074 124.294 10.6504 121.425L6.78906 114.736C5.13224 111.867 6.11474 108.197 8.98438 106.54ZM110 0C143.137 0 170 26.8629 170 60C170 93.1371 143.137 120 110 120C76.8629 120 50 93.1371 50 60C50 26.8629 76.8629 0 110 0ZM6 77C9.31371 77 12 79.6863 12 83V90.7227C12 94.0364 9.31371 96.7227 6 96.7227C2.68629 96.7227 0 94.0364 0 90.7227V83C0 79.6863 2.68629 77 6 77ZM9.98926 52.1211C11.6461 49.2514 15.3158 48.268 18.1855 49.9248C21.0552 51.5816 22.0385 55.2514 20.3818 58.1211L16.5205 64.8096C14.8636 67.6792 11.1939 68.6617 8.32422 67.0049C5.45463 65.348 4.47131 61.6793 6.12793 58.8096L9.98926 52.1211ZM34.8281 31.042C37.6843 29.3619 41.3619 30.3157 43.042 33.1719C44.722 36.028 43.7691 39.7056 40.9131 41.3857L34.2559 45.3008C31.3999 46.9806 27.7232 46.0276 26.043 43.1719C24.3629 40.3158 25.3158 36.6382 28.1719 34.958L34.8281 31.042Z" fill="white"/>
</svg>
