<svg width="25" height="25" viewBox="0 0 25 25" fill="none" xmlns="http://www.w3.org/2000/svg">
<path d="M16.6748 22.8943C16.1377 22.8943 15.6453 22.76 15.1978 22.4915C14.7583 22.231 14.4043 21.877 14.1357 21.4294C13.8672 20.99 13.7329 20.5017 13.7329 19.9646C13.7329 19.4275 13.8672 18.9392 14.1357 18.4998C14.4043 18.0522 14.7583 17.6982 15.1978 17.4377C15.6453 17.1692 16.1377 17.0349 16.6748 17.0349C17.2119 17.0349 17.7002 17.1692 18.1396 17.4377C18.5872 17.6982 18.9412 18.0522 19.2017 18.4998C19.4702 18.9392 19.6045 19.4275 19.6045 19.9646C19.6045 20.5017 19.4702 20.99 19.2017 21.4294C18.9412 21.877 18.5872 22.231 18.1396 22.4915C17.7002 22.76 17.2119 22.8943 16.6748 22.8943ZM16.6748 21.3928C17.0736 21.3928 17.4113 21.2545 17.688 20.9778C17.9647 20.7011 18.103 20.3634 18.103 19.9646C18.103 19.5577 17.9647 19.22 17.688 18.9514C17.4113 18.6747 17.0736 18.5364 16.6748 18.5364C16.276 18.5364 15.9383 18.6747 15.6616 18.9514C15.3849 19.22 15.2466 19.5577 15.2466 19.9646C15.2466 20.3634 15.3849 20.7011 15.6616 20.9778C15.9383 21.2545 16.276 21.3928 16.6748 21.3928ZM14.7339 18.9758V20.9412H0.976562C0.708008 20.9412 0.476074 20.8476 0.280762 20.6604C0.0935872 20.4651 0 20.2332 0 19.9646C0 19.6879 0.0935872 19.456 0.280762 19.2688C0.476074 19.0735 0.708008 18.9758 0.976562 18.9758H14.7339ZM23.6572 18.9758C23.9095 18.9758 24.1292 19.0735 24.3164 19.2688C24.5036 19.456 24.5972 19.6879 24.5972 19.9646C24.5972 20.2332 24.5036 20.4651 24.3164 20.6604C24.1292 20.8476 23.9095 20.9412 23.6572 20.9412H18.7988V18.9758H23.6572ZM8.05664 15.448C7.51953 15.448 7.02718 15.3137 6.57959 15.0452C6.14014 14.7766 5.78613 14.4226 5.51758 13.9832C5.25716 13.5356 5.12695 13.0432 5.12695 12.5061C5.12695 11.969 5.25716 11.4807 5.51758 11.0413C5.78613 10.5937 6.14014 10.2397 6.57959 9.97925C7.02718 9.71069 7.51953 9.57642 8.05664 9.57642C8.59375 9.57642 9.08203 9.71069 9.52148 9.97925C9.96908 10.2397 10.3231 10.5937 10.5835 11.0413C10.8521 11.4807 10.9863 11.969 10.9863 12.5061C10.9863 13.0432 10.8521 13.5356 10.5835 13.9832C10.3231 14.4226 9.96908 14.7766 9.52148 15.0452C9.08203 15.3137 8.59375 15.448 8.05664 15.448ZM8.05664 13.9343C8.46354 13.9343 8.80127 13.796 9.06982 13.5193C9.34652 13.2426 9.48486 12.9049 9.48486 12.5061C9.48486 12.0992 9.34652 11.7615 9.06982 11.4929C8.80127 11.2162 8.46354 11.0779 8.05664 11.0779C7.65788 11.0779 7.32015 11.2162 7.04346 11.4929C6.76676 11.7615 6.62842 12.0992 6.62842 12.5061C6.62842 12.9049 6.76676 13.2426 7.04346 13.5193C7.32015 13.796 7.65788 13.9343 8.05664 13.9343ZM0.927734 11.5173H5.95703V13.4827H0.927734C0.683594 13.4827 0.467936 13.3891 0.280762 13.2019C0.0935872 13.0147 0 12.7828 0 12.5061C0 12.2294 0.0935872 11.9975 0.280762 11.8103C0.467936 11.615 0.683594 11.5173 0.927734 11.5173ZM23.6084 11.5173C23.8851 11.5173 24.117 11.615 24.3042 11.8103C24.4995 11.9975 24.5972 12.2294 24.5972 12.5061C24.5972 12.7828 24.4995 13.0147 24.3042 13.2019C24.117 13.3891 23.8851 13.4827 23.6084 13.4827H9.99756V11.5173H23.6084ZM16.6748 7.97729C16.1377 7.97729 15.6453 7.84709 15.1978 7.58667C14.7583 7.31812 14.4043 6.96411 14.1357 6.52466C13.8672 6.07707 13.7329 5.58472 13.7329 5.04761C13.7329 4.5105 13.8672 4.02222 14.1357 3.58276C14.4043 3.13517 14.7583 2.7771 15.1978 2.50854C15.6453 2.23999 16.1377 2.10571 16.6748 2.10571C17.2119 2.10571 17.7002 2.23999 18.1396 2.50854C18.5872 2.7771 18.9412 3.13517 19.2017 3.58276C19.4702 4.02222 19.6045 4.5105 19.6045 5.04761C19.6045 5.58472 19.4702 6.07707 19.2017 6.52466C18.9412 6.96411 18.5872 7.31812 18.1396 7.58667C17.7002 7.84709 17.2119 7.97729 16.6748 7.97729ZM16.6748 6.47583C17.0736 6.47583 17.4113 6.33748 17.688 6.06079C17.9647 5.77596 18.103 5.43416 18.103 5.0354C18.103 4.63664 17.9647 4.29891 17.688 4.02222C17.4113 3.74552 17.0736 3.60718 16.6748 3.60718C16.276 3.60718 15.9383 3.74552 15.6616 4.02222C15.3849 4.29891 15.2466 4.63664 15.2466 5.0354C15.2466 5.43416 15.3849 5.77596 15.6616 6.06079C15.9383 6.33748 16.276 6.47583 16.6748 6.47583ZM14.7949 4.07104V6.03638H0.976562C0.708008 6.03638 0.476074 5.94279 0.280762 5.75562C0.0935872 5.5603 0 5.3243 0 5.04761C0 4.77905 0.0935872 4.55119 0.280762 4.36401C0.476074 4.1687 0.708008 4.07104 0.976562 4.07104H14.7949ZM23.6572 4.07104C23.9095 4.07104 24.1292 4.1687 24.3164 4.36401C24.5036 4.55119 24.5972 4.77905 24.5972 5.04761C24.5972 5.3243 24.5036 5.5603 24.3164 5.75562C24.1292 5.94279 23.9095 6.03638 23.6572 6.03638H18.6279V4.07104H23.6572Z" fill="#999999"/>
</svg>
