<svg width="25" height="25" viewBox="0 0 25 25" fill="none" xmlns="http://www.w3.org/2000/svg">
<path d="M0.776933 4.5283C-0.258978 3.49239 -0.258978 1.81285 0.776934 0.776934C1.81285 -0.258978 3.49239 -0.258978 4.5283 0.776934L24.223 20.4716C25.2589 21.5075 25.2589 23.1871 24.223 24.223C23.1871 25.2589 21.5075 25.2589 20.4716 24.223L0.776933 4.5283Z" fill="#999999"/>
<path d="M20.4717 0.77701C21.5076 -0.258902 23.1872 -0.258901 24.2231 0.777011C25.259 1.81292 25.259 3.49247 24.2231 4.52838L4.52839 24.2231C3.49248 25.259 1.81293 25.259 0.77702 24.2231C-0.258891 23.1872 -0.258891 21.5076 0.77702 20.4717L20.4717 0.77701Z" fill="#999999"/>
</svg>
