<svg width="25" height="25" viewBox="0 0 25 25" fill="none" xmlns="http://www.w3.org/2000/svg">
<path d="M22.4385 20.6553C23.2473 20.6553 24.0107 21.2478 24.0107 22.1035C24.0107 22.9592 23.2473 23.5518 22.4385 23.5518H14.0732C13.6972 24.1327 13.0007 24.4998 12.2559 24.5C11.5109 24.5 10.8136 24.1328 10.4375 23.5518H2.07227C1.26349 23.5518 0.500037 22.9592 0.5 22.1035C0.5 21.2478 1.26347 20.6553 2.07227 20.6553H22.4385ZM22.6035 11.4883C23.4122 11.4883 24.1756 12.081 24.1758 12.9365C24.1758 13.7922 23.4123 14.3848 22.6035 14.3848H2.2373C1.42851 14.3848 0.665039 13.7922 0.665039 12.9365C0.665206 12.081 1.4286 11.4883 2.2373 11.4883H22.6035ZM12.7441 1.5C13.4891 1.5 14.1864 1.86722 14.5625 2.44824H22.9277C23.7365 2.44824 24.5 3.04082 24.5 3.89648C24.5 4.75219 23.7365 5.34473 22.9277 5.34473H2.56152C1.75273 5.34473 0.989258 4.75219 0.989258 3.89648C0.989296 3.04081 1.75275 2.44824 2.56152 2.44824H10.9268C11.3028 1.86735 11.9993 1.50015 12.7441 1.5Z" stroke="#999999"/>
</svg>
