<svg width="25" height="25" viewBox="0 0 25 25" fill="none" xmlns="http://www.w3.org/2000/svg">
<path d="M1.25298 7.74168C0.908247 7.74168 0.613233 7.62235 0.36794 7.38369C0.122647 7.1384 0 6.84007 0 6.4887C0 6.14396 0.122647 5.84895 0.36794 5.60366C0.613233 5.35836 0.908247 5.23572 1.25298 5.23572C1.59772 5.23572 1.89273 5.35836 2.13803 5.60366C2.38332 5.84895 2.50597 6.14396 2.50597 6.4887C2.50597 6.84007 2.38332 7.1384 2.13803 7.38369C1.89273 7.62235 1.59772 7.74168 1.25298 7.74168ZM5.64837 7.29419C5.42296 7.29419 5.23071 7.21795 5.0716 7.06547C4.91912 6.90636 4.84288 6.71411 4.84288 6.4887C4.84288 6.2633 4.91912 6.07435 5.0716 5.92188C5.23071 5.7694 5.42296 5.69316 5.64837 5.69316H19.2224C19.4478 5.69316 19.64 5.7694 19.7991 5.92188C19.9582 6.07435 20.0378 6.2633 20.0378 6.4887C20.0378 6.71411 19.9582 6.90636 19.7991 7.06547C19.64 7.21795 19.4478 7.29419 19.2224 7.29419H5.64837ZM3.73906 13.758C3.3877 13.758 3.08937 13.6353 2.84407 13.3901C2.60541 13.1448 2.48608 12.8497 2.48608 12.505C2.48608 12.1603 2.60541 11.8653 2.84407 11.62C3.08937 11.3747 3.3877 11.252 3.73906 11.252C4.0838 11.252 4.37881 11.3747 4.6241 11.62C4.8694 11.8653 4.99204 12.1603 4.99204 12.505C4.99204 12.8497 4.8694 13.1448 4.6241 13.3901C4.37881 13.6353 4.0838 13.758 3.73906 13.758ZM8.1245 13.3006C7.90573 13.3006 7.71679 13.2243 7.55768 13.0718C7.4052 12.9194 7.32896 12.7304 7.32896 12.505C7.32896 12.2796 7.4052 12.0907 7.55768 11.9382C7.71679 11.7791 7.90573 11.6995 8.1245 11.6995H21.7084C21.9338 11.6995 22.1228 11.7791 22.2753 11.9382C22.4344 12.0907 22.5139 12.2796 22.5139 12.505C22.5139 12.7304 22.4344 12.9194 22.2753 13.0718C22.1228 13.2243 21.9338 13.3006 21.7084 13.3006H8.1245ZM6.21519 19.7644C5.87046 19.7644 5.57544 19.645 5.33015 19.4064C5.08486 19.1611 4.96221 18.8627 4.96221 18.5114C4.96221 18.1666 5.08486 17.8749 5.33015 17.6363C5.57544 17.391 5.87046 17.2683 6.21519 17.2683C6.56656 17.2683 6.86158 17.391 7.10024 17.6363C7.34553 17.8749 7.46818 18.1666 7.46818 18.5114C7.46818 18.8627 7.34553 19.1611 7.10024 19.4064C6.86158 19.645 6.56656 19.7644 6.21519 19.7644ZM10.6106 19.3169C10.3852 19.3169 10.1962 19.2406 10.0438 19.0881C9.89128 18.929 9.81504 18.7368 9.81504 18.5114C9.81504 18.286 9.89128 18.097 10.0438 17.9445C10.1962 17.7921 10.3852 17.7158 10.6106 17.7158H24.1945C24.4199 17.7158 24.6089 17.7921 24.7613 17.9445C24.9204 18.097 25 18.286 25 18.5114C25 18.7368 24.9204 18.929 24.7613 19.0881C24.6089 19.2406 24.4199 19.3169 24.1945 19.3169H10.6106Z" fill="#999999"/>
</svg>
