<svg width="30" height="30" viewBox="0 0 30 30" fill="none" xmlns="http://www.w3.org/2000/svg">
<g clip-path="url(#clip0_407_1550)">
<path d="M7.39746 1.19995L13.5979 7.15945C13.966 7.51321 14.1782 8.03245 14.1782 8.57923V13.0707L7.97772 7.11115C7.60962 6.75733 7.39746 6.23815 7.39746 5.6913V1.19995Z" fill="#7B19D8"/>
<path d="M7.39746 28.2L13.5979 22.2405C13.966 21.8868 14.1782 21.3675 14.1782 20.8208V16.3293L7.97772 22.2888C7.60962 22.6427 7.39746 23.1618 7.39746 23.7087V28.2Z" fill="#7B19D8"/>
<path d="M0 7.4845L6.11616 13.3301C6.41268 13.6135 6.78816 13.769 7.17618 13.769H12.1085L6.0075 7.92472C5.71075 7.64044 5.33469 7.4845 4.94606 7.4845H0Z" fill="#7B19D8"/>
<path d="M0 21.9155L6.07854 16.0732C6.3756 15.7877 6.75246 15.631 7.14204 15.631H12.1232L6.00714 21.4765C5.71059 21.76 5.33509 21.9155 4.94708 21.9155H0Z" fill="#7B19D8"/>
<path d="M22.6026 1.19995L16.402 7.15945C16.0339 7.51321 15.8218 8.03245 15.8218 8.57923V13.0707L22.0222 7.11115C22.3903 6.75733 22.6026 6.23815 22.6026 5.6913V1.19995Z" fill="#7B19D8"/>
<path d="M22.6026 28.2L16.402 22.2405C16.0339 21.8868 15.8218 21.3675 15.8218 20.8208V16.3293L22.0222 22.2888C22.3903 22.6427 22.6026 23.1618 22.6026 23.7087V28.2Z" fill="#7B19D8"/>
<path d="M30.0002 7.4845L23.884 13.3301C23.5875 13.6135 23.212 13.769 22.824 13.769H17.8916L23.9927 7.92472C24.2894 7.64044 24.6655 7.4845 25.0541 7.4845H30.0002Z" fill="#7B19D8"/>
<path d="M30.0002 21.9155L23.9217 16.0732C23.6246 15.7877 23.2477 15.631 22.8581 15.631H17.877L23.993 21.4765C24.2896 21.76 24.6651 21.9155 25.0531 21.9155H30.0002Z" fill="#7B19D8"/>
</g>
<defs>
<clipPath id="clip0_407_1550">
<rect width="30" height="30" fill="white"/>
</clipPath>
</defs>
</svg>
