<svg width="250" height="250" viewBox="0 0 250 250" fill="none" xmlns="http://www.w3.org/2000/svg">
<rect width="250" height="250" rx="80" fill="white"/>
<rect x="2.5" y="2.5" width="245" height="245" rx="77.5" stroke="black" stroke-opacity="0.2" stroke-width="5"/>
<path d="M162.032 123.67C158.558 129.376 155.12 135.034 151.664 140.681C149.642 143.983 146.984 146.685 143.704 148.732C137.974 152.307 131.499 152.014 125.989 148.032C123.252 146.054 121.114 143.536 119.238 140.763C118.807 140.126 118.928 139.556 119.3 138.97C120.856 136.529 122.4 134.079 123.969 131.646C131.553 119.884 139.13 108.119 146.738 96.3727C149.302 92.4134 151.715 88.3478 154.557 84.5776C157.628 80.5035 161.477 77.4166 166.426 75.8827C168.276 75.3094 170.178 75.0025 172.122 75.0027C175.742 75.003 179.362 74.9948 182.982 75.0056C184.368 75.0097 185.629 75.3962 186.655 76.3766C188.454 78.0945 188.822 80.0314 187.573 82.1927C185.978 84.9539 184.272 87.6511 182.597 90.3655C175.755 101.452 168.906 112.535 162.032 123.67Z" fill="#202020"/>
<path d="M65.7693 113.3C68.5842 112.859 71.333 112.414 74.0883 112.015C76.0735 111.728 78.056 111.409 80.0736 111.4C85.2851 111.378 89.8857 113.078 94.0215 116.2C96.4175 118.009 98.3855 120.238 100.373 122.449C105.335 127.972 110.279 133.511 115.219 139.054C116.989 141.04 118.376 143.318 120.002 145.414C122.973 149.243 126.588 152.147 131.426 153.262C134.869 154.055 138.237 153.758 141.535 152.532C141.962 152.373 142.381 152.192 142.803 152.02C143.271 151.828 143.743 151.703 144.12 152.175C144.486 152.634 144.204 153.032 143.947 153.416C142.695 155.287 141.436 157.154 140.187 159.027C138.013 162.289 135.706 165.441 132.868 168.174C128.014 172.847 122.257 175.309 115.494 174.969C110.807 174.733 106.586 172.997 102.792 170.229C99.746 168.007 97.3327 165.202 95.1039 162.185C88.956 153.863 82.8072 145.542 76.4813 137.351C72.2359 131.854 67.89 126.445 63.45 121.108C62.2465 119.661 61.517 118.033 62.3711 116.139C63.0239 114.691 64.2048 113.797 65.7693 113.3Z" fill="#202020"/>
</svg>
