<svg width="250" height="250" viewBox="0 0 250 250" fill="none" xmlns="http://www.w3.org/2000/svg">
<rect width="250" height="250" rx="80" fill="#262626"/>
<rect x="2.5" y="2.5" width="245" height="245" rx="77.5" stroke="white" stroke-opacity="0.2" stroke-width="5"/>
<path d="M162.032 123.264C158.587 128.921 155.178 134.533 151.75 140.133C149.745 143.407 147.109 146.086 143.857 148.116C138.175 151.662 131.754 151.371 126.29 147.422C123.576 145.461 121.455 142.964 119.595 140.214C119.168 139.583 119.287 139.017 119.657 138.436C121.2 136.015 122.731 133.586 124.287 131.173C131.807 119.51 139.321 107.842 146.865 96.1942C149.408 92.268 151.801 88.2364 154.619 84.4977C157.665 80.4575 161.481 77.3964 166.389 75.8753C168.223 75.3069 170.109 75.0025 172.037 75.0027C175.627 75.003 179.217 74.9949 182.807 75.0055C184.181 75.0096 185.432 75.3929 186.45 76.3651C188.233 78.0686 188.598 79.9893 187.36 82.1326C185.778 84.8708 184.086 87.5455 182.425 90.2372C175.64 101.231 168.848 112.221 162.032 123.264Z" fill="white"/>
<path d="M65.7378 113.815C68.5293 113.378 71.2551 112.937 73.9874 112.541C75.956 112.256 77.9219 111.94 79.9226 111.931C85.0907 111.909 89.6529 113.595 93.7541 116.691C96.1301 118.485 98.0816 120.695 100.052 122.888C104.973 128.365 109.876 133.858 114.775 139.354C116.53 141.323 117.905 143.583 119.518 145.661C122.464 149.458 126.049 152.338 130.846 153.443C134.26 154.23 137.6 153.936 140.871 152.719C141.294 152.562 141.71 152.382 142.128 152.212C142.593 152.022 143.06 151.898 143.434 152.365C143.797 152.82 143.518 153.215 143.263 153.596C142.021 155.452 140.772 157.303 139.534 159.16C137.378 162.395 135.091 165.521 132.276 168.231C127.462 172.865 121.754 175.307 115.047 174.969C110.399 174.735 106.214 173.014 102.452 170.269C99.4308 168.065 97.0377 165.284 94.8274 162.292C88.7309 154.039 82.6335 145.788 76.3604 137.666C72.1504 132.214 67.8408 126.851 63.4379 121.558C62.2444 120.123 61.521 118.508 62.368 116.63C63.0153 115.195 64.1864 114.308 65.7378 113.815Z" fill="white"/>
</svg>
