<svg width="25" height="25" viewBox="0 0 25 25" fill="none" xmlns="http://www.w3.org/2000/svg">
<g clip-path="url(#clip0_1_5385)">
<path d="M23.581 15.9583C23.581 16 23.581 16.0417 23.5392 16.0417C23.414 16.5 23.2471 16.9583 23.0801 17.4167C22.8715 17.9167 22.6628 18.375 22.4124 18.8333C21.9115 19.75 21.2855 20.5833 20.5342 21.3333C19.8247 22.0833 18.99 22.75 18.0718 23.2917C17.1536 23.8333 16.1937 24.25 15.1503 24.5417C14.1068 24.8333 13.0217 25 11.9366 25C5.34224 25 0 19.6667 0 13.0417C0 6.41667 5.34224 1.125 11.9366 1.125C14.1486 1.125 16.2354 1.75 18.0301 2.79167C18.0301 2.79167 18.0301 2.79167 18.0718 2.79167C18.9482 3.29167 19.7412 3.91667 20.409 4.625C20.6177 4.79167 20.7429 4.91667 20.9098 5.125C21.2855 5.45833 21.5776 5.25 21.5776 4.75V0.833333C21.5776 0.375 21.9533 0 22.4124 0H24.0818C24.5409 0 24.9165 0.375 25 0.833333V11.0417C25 11.4167 24.6661 11.7917 24.2487 11.7917H14.0234C13.5643 11.7917 13.2304 11.4583 13.2304 11V9.25C13.2304 8.79167 13.606 8.41667 14.0651 8.41667H17.9883C18.3222 8.41667 18.5726 8.33333 18.6978 8.125C17.1953 6.04167 14.6912 4.66667 11.9366 4.66667C7.30384 4.66667 3.54758 8.41667 3.54758 13.0417C3.54758 17.6667 7.30384 21.4167 11.9366 21.4167C15.5676 21.4167 18.6561 19.125 19.8247 15.875C19.8247 15.875 19.9499 15.125 20.5342 15.125C21.1185 15.125 22.5376 15.125 22.9132 15.125C23.2471 15.125 23.581 15.375 23.581 15.75C23.581 15.8333 23.581 15.875 23.581 15.9583Z" fill="#999999"/>
</g>
<defs>
<clipPath id="clip0_1_5385">
<rect width="25" height="25" fill="white"/>
</clipPath>
</defs>
</svg>
