<svg width="25" height="25" viewBox="0 0 25 25" fill="none" xmlns="http://www.w3.org/2000/svg">
<g clip-path="url(#clip0_1_5367)">
<path d="M12.5 24.9512C10.7829 24.9512 9.17155 24.6257 7.66602 23.9746C6.16048 23.3317 4.83805 22.4406 3.69873 21.3013C2.55941 20.1538 1.66423 18.8314 1.01318 17.334C0.37028 15.8285 0.0488281 14.2171 0.0488281 12.5C0.0488281 10.7829 0.37028 9.17155 1.01318 7.66602C1.66423 6.16048 2.55941 4.83805 3.69873 3.69873C4.83805 2.55941 6.16048 1.66829 7.66602 1.02539C9.17155 0.374349 10.7829 0.0488281 12.5 0.0488281C14.2171 0.0488281 15.8285 0.374349 17.334 1.02539C18.8395 1.66829 20.1619 2.55941 21.3013 3.69873C22.4406 4.83805 23.3317 6.16048 23.9746 7.66602C24.6257 9.17155 24.9512 10.7829 24.9512 12.5C24.9512 14.2171 24.6257 15.8285 23.9746 17.334C23.3317 18.8314 22.4406 20.1538 21.3013 21.3013C20.1619 22.4406 18.8395 23.3317 17.334 23.9746C15.8285 24.6257 14.2171 24.9512 12.5 24.9512ZM6.54297 12.5122C6.54297 12.8215 6.64469 13.0737 6.84814 13.269C7.0516 13.4562 7.31201 13.5498 7.62939 13.5498H11.4502V17.3828C11.4502 17.7002 11.5438 17.9606 11.731 18.1641C11.9263 18.3594 12.1785 18.457 12.4878 18.457C12.8052 18.457 13.0615 18.3594 13.2568 18.1641C13.4603 17.9606 13.562 17.7002 13.562 17.3828V13.5498H17.395C17.7043 13.5498 17.9606 13.4562 18.1641 13.269C18.3675 13.0737 18.4692 12.8215 18.4692 12.5122C18.4692 12.1948 18.3675 11.9385 18.1641 11.7432C17.9688 11.5397 17.7124 11.438 17.395 11.438H13.562V7.61719C13.562 7.2998 13.4603 7.03939 13.2568 6.83594C13.0615 6.63249 12.8052 6.53076 12.4878 6.53076C12.1785 6.53076 11.9263 6.63249 11.731 6.83594C11.5438 7.03939 11.4502 7.2998 11.4502 7.61719V11.438H7.62939C7.31201 11.438 7.0516 11.5397 6.84814 11.7432C6.64469 11.9385 6.54297 12.1948 6.54297 12.5122Z" fill="#999999"/>
</g>
<defs>
<clipPath id="clip0_1_5367">
<rect width="25" height="25" fill="white"/>
</clipPath>
</defs>
</svg>
