<svg width="25" height="25" viewBox="0 0 25 25" fill="none" xmlns="http://www.w3.org/2000/svg">
<g clip-path="url(#clip0_1_5369)">
<path d="M0 12.5C0 12.1263 0.131313 11.8081 0.393939 11.5455C0.666667 11.2727 0.984848 11.1364 1.34848 11.1364H11.1515V1.34848C11.1515 0.984848 11.2828 0.671717 11.5455 0.409091C11.8081 0.136364 12.1263 0 12.5 0C12.8737 0 13.1919 0.136364 13.4545 0.409091C13.7273 0.671717 13.8636 0.984848 13.8636 1.34848V11.1364H23.6515C24.0152 11.1364 24.3283 11.2727 24.5909 11.5455C24.8636 11.8081 25 12.1263 25 12.5C25 12.8737 24.8636 13.1919 24.5909 13.4545C24.3283 13.7172 24.0152 13.8485 23.6515 13.8485H13.8636V23.6515C13.8636 24.0152 13.7273 24.3283 13.4545 24.5909C13.1919 24.8636 12.8737 25 12.5 25C12.1263 25 11.8081 24.8636 11.5455 24.5909C11.2828 24.3283 11.1515 24.0152 11.1515 23.6515V13.8485H1.34848C0.984848 13.8485 0.666667 13.7172 0.393939 13.4545C0.131313 13.1919 0 12.8737 0 12.5Z" fill="#999999"/>
</g>
<defs>
<clipPath id="clip0_1_5369">
<rect width="25" height="25" fill="white"/>
</clipPath>
</defs>
</svg>
