<svg width="25" height="25" viewBox="0 0 25 25" fill="none" xmlns="http://www.w3.org/2000/svg">
<path d="M19.8949 21.8176C21.091 20.847 22.9458 20.8208 24.1858 21.7269L24.3035 21.8176L24.3745 21.8805C24.7059 22.2083 24.7416 22.7406 24.4428 23.1113C24.1438 23.4821 23.6161 23.5599 23.2254 23.3054L23.149 23.2506L23.0385 23.1697C22.4615 22.7945 21.5733 22.8239 21.053 23.247L21.0494 23.2506C19.8117 24.2478 17.8754 24.2516 16.6408 23.2497C16.0726 22.7918 15.0987 22.7955 14.5438 23.247L14.5411 23.2506C13.3034 24.248 11.3663 24.2519 10.1316 23.2497C9.56347 22.7922 8.5904 22.7958 8.03559 23.247L8.03199 23.2506C6.79429 24.2478 4.85804 24.2516 3.62338 23.2497C3.05519 22.7918 2.08134 22.7955 1.52644 23.247C1.13246 23.5676 0.553451 23.5087 0.232694 23.1149C-0.0880005 22.7208 -0.0284444 22.141 0.365662 21.8203C1.56161 20.8472 3.41819 20.8202 4.65928 21.7269L4.77787 21.8176L4.78146 21.8203C5.33638 22.2716 6.30937 22.2754 6.87751 21.8176C8.07366 20.847 9.92844 20.8208 11.1684 21.7269L11.2861 21.8176L11.2897 21.8203C11.8446 22.2718 12.8184 22.2755 13.3867 21.8176C14.5827 20.8473 16.4368 20.8211 17.6767 21.7269L17.7953 21.8176L17.7989 21.8203C18.3538 22.2716 19.3268 22.2753 19.8949 21.8176ZM18.5832 18.3595C19.7018 17.2924 21.4887 17.2924 22.6073 18.3595C22.9749 18.7103 22.9886 19.2928 22.6378 19.6605C22.2872 20.0277 21.7053 20.0413 21.3378 19.691C20.9301 19.3021 20.2613 19.3021 19.8536 19.691C18.735 20.7582 16.9472 20.7581 15.8286 19.691C15.4209 19.3021 14.7521 19.3021 14.3444 19.691C13.2259 20.7579 11.4389 20.7579 10.3203 19.691C9.91264 19.3021 9.24379 19.3021 8.83609 19.691C7.7175 20.7582 5.92973 20.7581 4.81111 19.691C4.40342 19.3021 3.73459 19.3021 3.3269 19.691C2.95926 20.0416 2.37665 20.028 2.02597 19.6605C1.67531 19.2929 1.6891 18.7103 2.05651 18.3595C3.17513 17.2923 4.96288 17.2923 6.0815 18.3595C6.4892 18.7484 7.15806 18.7484 7.56571 18.3595C8.68429 17.2924 10.4712 17.2925 11.5898 18.3595C11.9974 18.7484 12.6663 18.7483 13.074 18.3595C14.1926 17.2923 15.9804 17.2923 17.099 18.3595C17.5067 18.7484 18.1755 18.7484 18.5832 18.3595ZM11.4038 15.9553V12.0355L10.3428 13.0965C9.98349 13.4558 9.40022 13.4558 9.04094 13.0965C8.68204 12.7372 8.6819 12.1548 9.04094 11.7956L11.6733 9.16406L11.7425 9.10117C12.1039 8.80625 12.6374 8.82716 12.9743 9.16406L15.6058 11.7956L15.6687 11.8657C15.9633 12.2269 15.9424 12.7597 15.6058 13.0965C15.269 13.4333 14.7354 13.455 14.374 13.1603L14.3049 13.0965L13.2438 12.0355V15.9553C13.2436 16.4632 12.8316 16.8751 12.3238 16.8753C11.8158 16.8753 11.404 16.4633 11.4038 15.9553ZM17.5437 13.3238C17.5437 10.4373 15.2103 8.10321 12.3238 8.10301C9.43719 8.10301 7.10301 10.4372 7.10301 13.3238C7.10306 14.0258 7.24478 14.6894 7.49653 15.3022L7.61153 15.5618L7.64747 15.649C7.80302 16.0884 7.60342 16.5827 7.17309 16.7864C6.7137 17.0034 6.16471 16.8073 5.94763 16.3479C5.51638 15.4352 5.26308 14.4158 5.26302 13.3238C5.26302 9.42099 8.42099 6.26302 12.3238 6.26302C16.2265 6.26322 19.3837 9.42112 19.3837 13.3238C19.3836 14.4158 19.1304 15.4352 18.6991 16.3479L18.6542 16.4315C18.4133 16.8304 17.905 16.9897 17.4745 16.7864C17.0151 16.5693 16.8181 16.0212 17.0352 15.5618C17.3582 14.8783 17.5437 14.1262 17.5437 13.3238ZM3.55151 12.4038L3.64584 12.4083C4.10965 12.4555 4.4715 12.8475 4.4715 13.3238C4.47132 13.7999 4.10952 14.1912 3.64584 14.2384L3.55151 14.2438H0.919996C0.412019 14.2438 0.000199094 13.8317 0 13.3238C0 12.8157 0.411896 12.4038 0.919996 12.4038H3.55151ZM23.7267 12.4038L23.8211 12.4083C24.2849 12.4555 24.6467 12.8475 24.6467 13.3238C24.6465 13.7999 24.2848 14.1913 23.8211 14.2384L23.7267 14.2438H21.0952C20.5873 14.2437 20.1754 13.8317 20.1752 13.3238C20.1752 12.8157 20.5872 12.4039 21.0952 12.4038H23.7267ZM3.6117 4.6117C3.94855 4.27489 4.48122 4.25405 4.84256 4.54881L4.91263 4.6117L6.77239 6.47146L6.83528 6.54154C7.12984 6.90287 7.10913 7.43562 6.77239 7.77239C6.43546 8.10933 5.902 8.1303 5.54064 7.83528L5.47146 7.77239L3.6117 5.91263L3.54881 5.84256C3.25405 5.4812 3.27486 4.94854 3.6117 4.6117ZM19.7341 4.6117C20.0934 4.25243 20.6757 4.25242 21.035 4.6117C21.3943 4.97098 21.3943 5.55336 21.035 5.91263L19.1753 7.77239C18.816 8.13155 18.2336 8.13161 17.8743 7.77239C17.5151 7.41315 17.5152 6.83075 17.8743 6.47146L19.7341 4.6117ZM11.4038 4.55151V1.92C11.4038 1.4119 11.8157 1 12.3238 1C12.8317 1.0002 13.2438 1.41202 13.2438 1.92V4.55151C13.2438 5.05948 12.8317 5.4713 12.3238 5.4715C11.8157 5.4715 11.4038 5.05961 11.4038 4.55151Z" fill="#999999"/>
</svg>
