<svg width="25" height="25" viewBox="0 0 25 25" fill="none" xmlns="http://www.w3.org/2000/svg">
<path d="M13.1939 23.802C12.3956 24.6006 11.5861 24.9999 10.7655 24.9999C9.94485 25.0074 9.12421 24.6043 8.30356 23.7908L1.21988 16.7151C0.399234 15.8941 -0.00735961 15.0731 0.000100817 14.2521C0.00756125 13.4311 0.410425 12.6212 1.20869 11.8226L12.1531 0.895652C12.4292 0.619493 12.6828 0.417971 12.9141 0.291087C13.1454 0.164203 13.3916 0.0858334 13.6527 0.0559783C13.9213 0.0186594 14.2495 0 14.6375 0H18.9011C19.2965 0 19.6173 0.0373188 19.8635 0.111957C20.1171 0.17913 20.3484 0.298551 20.5573 0.470217C20.7662 0.63442 21.0124 0.854602 21.2959 1.13076L23.8697 3.70576C24.1532 3.98939 24.3771 4.23942 24.5412 4.45587C24.7053 4.66486 24.8209 4.89623 24.8881 5.15C24.9627 5.39631 25 5.71725 25 6.11283V10.3672C25 10.7628 24.9851 11.0949 24.9552 11.3636C24.9254 11.6248 24.8471 11.8711 24.7202 12.1025C24.5934 12.3264 24.3882 12.5802 24.1047 12.8638L13.1939 23.802ZM11.9853 22.4473L22.8402 11.5875C22.9521 11.4755 23.0379 11.3561 23.0976 11.2292C23.1647 11.1024 23.1983 10.9456 23.1983 10.759V6.03446C23.1983 5.72844 23.0789 5.45602 22.8402 5.21718L19.7964 2.17196C19.5502 1.92565 19.2741 1.8025 18.9682 1.8025H14.257C14.0705 1.8025 13.9138 1.83609 13.787 1.90326C13.6601 1.97044 13.5371 2.06 13.4177 2.17196L2.56276 13.0205C2.1599 13.4161 1.95846 13.8266 1.95846 14.2521C1.95846 14.67 2.16363 15.0843 2.57395 15.4948L9.51215 22.4361C10.3403 23.272 11.1646 23.2758 11.9853 22.4473ZM17.5918 8.95652C17.1516 8.95652 16.7861 8.80725 16.4951 8.5087C16.2042 8.21015 16.0587 7.84815 16.0587 7.42272C16.0587 6.98982 16.2042 6.62783 16.4951 6.33674C16.7861 6.03819 17.1516 5.88891 17.5918 5.88891C18.032 5.88891 18.3975 6.03819 18.6885 6.33674C18.9794 6.62783 19.1249 6.98982 19.1249 7.42272C19.1249 7.84815 18.9794 8.21015 18.6885 8.5087C18.3975 8.80725 18.032 8.95652 17.5918 8.95652Z" fill="#999999"/>
</svg>
