<svg width="18" height="18" viewBox="0 0 18 18" fill="none" xmlns="http://www.w3.org/2000/svg">
<path d="M16.7694 0.754684C17.3022 1.25607 17.6676 1.86697 17.6975 2.61274C17.7019 3.24883 17.6525 3.87817 17.6001 4.51178C17.5905 4.62926 17.581 4.74674 17.5716 4.86422C17.5517 5.10907 17.5316 5.35389 17.5113 5.59871C17.4855 5.91062 17.4604 6.22259 17.4355 6.53458C17.4161 6.77673 17.3963 7.01886 17.3763 7.26097C17.3669 7.37592 17.3576 7.49089 17.3485 7.60586C17.1939 9.54086 17.1939 9.54087 16.5728 10.2655C16.5494 10.293 16.5261 10.3204 16.502 10.3486C16.2278 10.666 15.9329 10.962 15.6362 11.258C15.574 11.3204 15.5119 11.3828 15.4497 11.4452C15.2828 11.6128 15.1156 11.7801 14.9482 11.9473C14.8079 12.0876 14.6677 12.228 14.5275 12.3685C14.1965 12.7 13.8652 13.0313 13.5338 13.3624C13.1933 13.7026 12.8532 14.0433 12.5133 14.3843C12.22 14.6784 11.9265 14.9722 11.6327 15.2658C11.4579 15.4406 11.2831 15.6154 11.1087 15.7906C10.9446 15.9552 10.7803 16.1195 10.6156 16.2836C10.5556 16.3434 10.4958 16.4034 10.4361 16.4635C9.71235 17.1918 8.98747 17.7611 7.91932 17.8018C6.96833 17.7828 6.29001 17.3585 5.63463 16.6954C5.57926 16.6403 5.52385 16.5852 5.46838 16.5302C5.31933 16.3821 5.17105 16.2331 5.02294 16.0841C4.86706 15.9274 4.71056 15.7713 4.55415 15.6152C4.2918 15.353 4.02994 15.0904 3.76838 14.8275C3.46682 14.5243 3.16448 14.222 2.86172 13.9201C2.56927 13.6284 2.27738 13.3362 1.98573 13.0437C1.86213 12.9198 1.73835 12.796 1.6144 12.6725C1.4683 12.5267 1.3227 12.3805 1.17746 12.234C1.12437 12.1805 1.07111 12.1273 1.01767 12.0742C0.388212 11.4484 0.00690165 10.7963 7.27169e-06 9.89775C-0.000664195 9.48506 0.0449896 9.13302 0.210579 8.75029C0.229587 8.70554 0.248596 8.66079 0.26818 8.61468C0.483429 8.17081 0.860164 7.68927 1.29395 7.43803C1.5215 7.37089 1.69288 7.35902 1.91956 7.43193C2.10512 7.53875 2.22884 7.67299 2.31019 7.87138C2.34413 8.08843 2.33394 8.26234 2.23695 8.46037C2.13633 8.57859 2.03427 8.68274 1.92261 8.78996C1.61636 9.08765 1.42933 9.42492 1.41602 9.85503C1.42948 10.6199 2.05978 11.0949 2.56167 11.5983C2.60962 11.6466 2.65756 11.6948 2.70549 11.7431C2.86092 11.8995 3.01661 12.0557 3.17231 12.2119C3.22631 12.2661 3.28031 12.3203 3.3343 12.3745C3.58777 12.6289 3.84135 12.8832 4.09508 13.1373C4.38666 13.4294 4.67782 13.7219 4.96866 14.0147C5.19457 14.242 5.42086 14.4691 5.64744 14.6958C5.78231 14.8308 5.91702 14.9659 6.05134 15.1015C6.17756 15.2288 6.30424 15.3557 6.43129 15.4823C6.4995 15.5504 6.56722 15.6191 6.63492 15.6878C7.00066 16.0505 7.35286 16.322 7.8827 16.3339C8.71425 16.3229 9.22945 15.6081 9.7796 15.0606C9.84173 14.9989 9.90387 14.9373 9.96601 14.8756C10.1682 14.675 10.3702 14.474 10.5721 14.273C10.6066 14.2387 10.6411 14.2043 10.6766 14.169C11.0025 13.8445 11.3284 13.52 11.6539 13.1953C12.0686 12.7817 12.4837 12.3686 12.8995 11.9562C13.193 11.665 13.4859 11.3733 13.7783 11.0812C13.9526 10.9072 14.1271 10.7335 14.3022 10.5603C14.4668 10.3975 14.6308 10.2339 14.7942 10.0699C14.854 10.0101 14.914 9.95056 14.9743 9.89131C15.4015 9.47109 15.796 9.03735 15.8438 8.40798C15.849 8.34723 15.8542 8.28649 15.8596 8.2239C15.8639 8.15975 15.8682 8.0956 15.8726 8.0295C15.8781 7.96017 15.8837 7.89085 15.8895 7.82154C15.9044 7.63722 15.9179 7.45281 15.931 7.26835C15.945 7.07662 15.9602 6.885 15.9754 6.69336C15.9966 6.42334 16.0175 6.1533 16.0377 5.8832C16.07 5.45255 16.1054 5.02229 16.1432 4.59208C16.1528 4.48185 16.1624 4.37161 16.1719 4.26138C16.1851 4.10891 16.1984 3.95646 16.212 3.80403C16.2242 3.66627 16.2359 3.52846 16.2474 3.39064C16.251 3.35168 16.2546 3.31271 16.2583 3.27257C16.2994 2.76271 16.2574 2.33138 15.921 1.92961C15.1703 1.29828 14.2159 1.53953 13.3034 1.61471C13.1862 1.62422 13.069 1.63372 12.9518 1.64321C12.7074 1.66309 12.463 1.68319 12.2186 1.70343C11.9062 1.72927 11.5939 1.75436 11.2815 1.77926C11.0399 1.79862 10.7984 1.81847 10.5568 1.83846C10.4417 1.84791 10.3265 1.8572 10.2113 1.86631C10.0502 1.8791 9.88916 1.89258 9.72811 1.90621C9.68117 1.90979 9.63423 1.91337 9.58587 1.91707C9.20794 1.95021 8.79277 2.00485 8.49305 2.25615C8.44868 2.2924 8.44868 2.2924 8.4034 2.32939C8.37458 2.35356 8.34575 2.37773 8.31605 2.40263C8.13587 2.54866 8.01452 2.58597 7.77894 2.59795C7.56326 2.56448 7.43686 2.51846 7.29676 2.3538C7.12186 2.10689 7.11322 1.91981 7.14417 1.62138C7.34643 1.1617 7.86311 0.903009 8.29793 0.704711C8.68401 0.564238 9.07593 0.523727 9.48338 0.49048C9.56827 0.483197 9.56827 0.483197 9.65487 0.475767C9.84099 0.459894 10.0271 0.444473 10.2133 0.429099C10.3105 0.420948 10.4078 0.412796 10.505 0.404626C10.8106 0.378963 11.1162 0.353632 11.4218 0.328499C11.7354 0.302707 12.0489 0.276305 12.3623 0.249608C12.6329 0.226586 12.9036 0.203977 13.1742 0.181681C13.3352 0.168413 13.4962 0.154945 13.6572 0.141163C14.7949 0.0441027 15.8496 -0.0418023 16.7694 0.754684Z" fill="#999999"/>
<path d="M4.50745 0.0100546C4.70965 0.0954253 4.83299 0.213536 4.94691 0.40068C5.00315 0.607684 5.02405 0.769126 4.94345 0.971263C4.82316 1.17793 4.67331 1.32822 4.50345 1.49493C4.46967 1.52861 4.43589 1.5623 4.40109 1.59701C4.3298 1.66797 4.25834 1.73875 4.18672 1.80936C4.07769 1.91688 3.96919 2.0249 3.86077 2.13303C3.79121 2.20214 3.72163 2.27122 3.65201 2.34026C3.6198 2.37226 3.5876 2.40426 3.55441 2.43723C3.37434 2.61456 3.19042 2.78094 2.99378 2.93974C3.0486 2.94045 3.10342 2.94117 3.1599 2.9419C3.3675 2.94478 3.57507 2.94855 3.78265 2.95256C3.8717 2.95416 3.96076 2.95553 4.04982 2.95666C4.85321 2.96706 5.63318 3.00978 6.36292 3.3792C6.41095 3.40324 6.45897 3.42728 6.50845 3.45206C7.39761 3.93287 7.99637 4.71722 8.31586 5.67316C8.43635 6.09114 8.46984 6.49713 8.4704 6.92984C8.47064 6.97563 8.47088 7.02141 8.47113 7.06858C8.47184 7.21881 8.47218 7.36905 8.47245 7.51929C8.47273 7.62422 8.47301 7.72914 8.47329 7.83407C8.4738 8.05349 8.47409 8.2729 8.47426 8.49232C8.47453 8.7733 8.47571 9.05427 8.47709 9.33525C8.478 9.55173 8.47826 9.76821 8.47833 9.98469C8.47848 10.0883 8.47887 10.1919 8.47951 10.2955C8.48035 10.4403 8.48025 10.5851 8.47994 10.7299C8.48039 10.7725 8.48084 10.8151 8.4813 10.859C8.47962 11.1042 8.45221 11.2724 8.31605 11.4847C8.10313 11.6768 7.97621 11.744 7.68586 11.7393C7.46638 11.7168 7.32841 11.6211 7.17774 11.4664C7.01444 11.2123 7.03941 10.9332 7.03959 10.6408C7.03942 10.5955 7.03925 10.5503 7.03908 10.5036C7.03872 10.4054 7.03846 10.3072 7.03828 10.209C7.03793 10.0531 7.03716 9.89727 7.03626 9.74141C7.03371 9.2983 7.03136 8.8552 7.0306 8.41208C7.03011 8.14078 7.02867 7.8695 7.02663 7.59821C7.02603 7.49526 7.02578 7.3923 7.02589 7.28935C7.02655 6.45952 6.94181 5.74394 6.35682 5.10344C5.86693 4.64599 5.26946 4.42699 4.60778 4.43911C4.56404 4.43932 4.52029 4.43952 4.47522 4.43974C4.33743 4.44055 4.19968 4.44238 4.0619 4.44426C3.96767 4.44499 3.87345 4.44566 3.77923 4.44626C3.54995 4.44786 3.3207 4.45039 3.09144 4.45341C3.11241 4.47396 3.13339 4.4945 3.155 4.51567C3.37422 4.73055 3.59274 4.94613 3.81087 5.16211C3.89224 5.24251 3.9738 5.32274 4.05553 5.40277C4.17333 5.51819 4.29047 5.63423 4.40751 5.75041C4.44388 5.78578 4.48026 5.82114 4.51773 5.85758C4.75359 6.09333 4.96572 6.33382 5.01271 6.677C4.9752 6.95141 4.90451 7.09308 4.70277 7.28545C4.56361 7.36894 4.45576 7.39857 4.29383 7.40141C4.25821 7.4028 4.22258 7.40418 4.18587 7.40561C3.88709 7.34856 3.6632 7.09026 3.45646 6.88263C3.42609 6.85251 3.39573 6.82239 3.36444 6.79136C3.26479 6.69239 3.16551 6.59307 3.06626 6.4937C2.99686 6.42449 2.92745 6.3553 2.85803 6.28611C2.7129 6.14134 2.56797 5.99639 2.42315 5.85132C2.23759 5.66548 2.05149 5.4802 1.86522 5.29507C1.72188 5.15244 1.57887 5.00948 1.43596 4.86642C1.36747 4.79795 1.29886 4.7296 1.23014 4.66137C1.13418 4.56602 1.03871 4.47021 0.943335 4.37427C0.914925 4.34623 0.886515 4.3182 0.857245 4.28931C0.655394 4.0848 0.563054 3.93611 0.537117 3.6508C0.564007 3.34425 0.709583 3.15468 0.923737 2.94298C0.967765 2.89921 1.01179 2.85543 1.05716 2.81033C1.10307 2.76542 1.14899 2.72051 1.1963 2.67424C1.24127 2.62952 1.28624 2.5848 1.33258 2.53872C1.52254 2.35092 1.71278 2.16551 1.91594 1.99198C2.19261 1.75423 2.44471 1.49018 2.70081 1.23076C3.01706 0.910409 3.33207 0.592588 3.67738 0.303023C3.70541 0.27905 3.73344 0.255077 3.76232 0.230377C4.0181 0.0134033 4.17643 -0.0215536 4.50745 0.0100546Z" fill="#999999"/>
<path d="M13.5733 3.35516C14.0576 3.67025 14.3663 4.05965 14.566 4.5999C14.5781 4.63187 14.5901 4.66385 14.6025 4.69679C14.7846 5.28452 14.6576 5.89737 14.4074 6.44163C14.1068 6.99501 13.6347 7.31591 13.0524 7.52959C12.4617 7.68742 11.797 7.60864 11.2673 7.31348C10.7134 6.96152 10.3825 6.48446 10.1715 5.86943C10.0279 5.20664 10.1649 4.58796 10.5133 4.01396C11.1914 3.04874 12.5584 2.78161 13.5733 3.35516ZM11.7157 4.7708C11.539 5.04259 11.4915 5.2522 11.5387 5.57646C11.6459 5.84605 11.8117 6.03781 12.0758 6.1624C12.3703 6.23813 12.6041 6.23518 12.8691 6.07943C13.0953 5.91162 13.2406 5.70977 13.2965 5.42998C13.301 5.15107 13.2319 4.96466 13.0524 4.74638C12.8281 4.52919 12.6483 4.43498 12.3293 4.43968C12.0785 4.47187 11.8875 4.59001 11.7157 4.7708Z" fill="#999999"/>
</svg>
