<svg width="25" height="25" viewBox="0 0 25 25" fill="none" xmlns="http://www.w3.org/2000/svg">
<g clip-path="url(#clip0_884_2522)">
<path d="M12.5 0C19.4036 0 25 5.59644 25 12.5C25 19.4036 19.4036 25 12.5 25C5.59644 25 0 19.4036 0 12.5C0 5.59644 5.59644 0 12.5 0ZM17.9365 7C17.569 7.00001 17.2626 7.19918 17.0176 7.59766L11.5693 16.4482L8.98242 13.0596C8.82492 12.8471 8.66727 12.7056 8.50977 12.6348C8.36097 12.555 8.19455 12.5146 8.01074 12.5146C7.73077 12.5147 7.49032 12.6214 7.28906 12.834C7.0965 13.0377 7 13.2858 7 13.5781C7.00001 13.8527 7.10046 14.1277 7.30176 14.4023L10.5059 18.3887C10.6721 18.6012 10.8426 18.7561 11.0176 18.8535C11.2013 18.9509 11.4024 18.9999 11.6211 19C12.0674 19 12.422 18.7961 12.6846 18.3887L18.6846 8.82031C18.7633 8.69633 18.8333 8.56356 18.8945 8.42188C18.9646 8.27127 19 8.12034 19 7.96973C18.9999 7.67754 18.8906 7.44274 18.6719 7.26562C18.4531 7.08845 18.2079 7 17.9365 7Z" fill="#ADADAD"/>
</g>
<defs>
<clipPath id="clip0_884_2522">
<rect width="25" height="25" fill="white"/>
</clipPath>
</defs>
</svg>
