<svg width="12" height="12" viewBox="0 0 12 12" fill="none" xmlns="http://www.w3.org/2000/svg">
<path d="M4.01751 11.8538C4.20131 11.9513 4.40263 12 4.62144 12C5.06783 12 5.42232 11.7962 5.6849 11.3887L11.6849 1.8206C11.7637 1.69657 11.8337 1.56368 11.895 1.42193C11.965 1.27132 12 1.12071 12 0.9701C12 0.677741 11.8906 0.442968 11.6718 0.265781C11.453 0.0885936 11.2079 0 10.9365 0C10.5689 0 10.2626 0.199336 10.0175 0.598007L4.56893 9.44851L1.98249 6.0598C1.82495 5.84718 1.6674 5.70543 1.50985 5.63455C1.36105 5.55482 1.19475 5.51495 1.01094 5.51495C0.730853 5.51495 0.490153 5.62126 0.28884 5.83389C0.0962801 6.03765 0 6.28571 0 6.57807C0 6.85271 0.100656 7.12735 0.301969 7.40199L3.50547 11.3887C3.67177 11.6013 3.84245 11.7564 4.01751 11.8538Z" fill="#ADADAD"/>
</svg>
