<svg width="25" height="25" viewBox="0 0 25 25" fill="none" xmlns="http://www.w3.org/2000/svg">
<path d="M12.5136 20C11.8586 20 11.2582 19.7286 10.7123 19.1858L0.614083 8.73965C0.413937 8.52806 0.259279 8.29807 0.150109 8.04968C0.0500364 7.79209 0 7.5161 0 7.22171C0 6.80773 0.095524 6.43514 0.286572 6.10396C0.486718 5.76357 0.750546 5.49678 1.07806 5.30359C1.40557 5.1012 1.76947 5 2.16976 5C2.77929 5 3.31605 5.23459 3.78002 5.70377L13.0731 15.3772H11.9678L21.2336 5.70377C21.6976 5.23459 22.2298 5 22.8302 5C23.2305 5 23.5944 5.1012 23.9219 5.30359C24.2495 5.49678 24.5087 5.76357 24.6998 6.10396C24.8999 6.43514 25 6.80773 25 7.22171C25 7.81969 24.7953 8.32567 24.3859 8.73965L14.3013 19.1858C14.0284 19.4618 13.7464 19.6642 13.4552 19.793C13.1641 19.9218 12.8503 19.9908 12.5136 20Z" fill="#999999"/>
</svg>
